<?xml version="1.0" encoding="utf-8"?>
<svg version="1.1" id="Layer_1" xmlns="http://www.w3.org/2000/svg" xmlns:xlink="http://www.w3.org/1999/xlink" x="0px" y="0px"
	 viewBox="0 0 45 45" style="enable-background:new 0 0 45 45;" xml:space="preserve">
<style type="text/css">
	.st3{fill:#0CB6F5;}
	.st4{fill:#F4F5F5;}
	.st5{fill:none;}
</style>
<g>
	<circle class="st4" cx="22.5" cy="22.5" r="22.5"/>
	<g>
		<g>
			<path class="st5" d="M19.1,27.2h-2c-0.2,0-0.4,0.2-0.4,0.4c0,0.2,0.2,0.4,0.4,0.4h2c0.2,0,0.4-0.2,0.4-0.4
				C19.5,27.3,19.3,27.2,19.1,27.2z"/>
			<path class="st5" d="M19.1,29.6h-2c-0.2,0-0.4,0.2-0.4,0.4c0,0.2,0.2,0.4,0.4,0.4h2c0.2,0,0.4-0.2,0.4-0.4
				C19.5,29.8,19.3,29.6,19.1,29.6z"/>
			<path class="st5" d="M19.1,24.7h-2c-0.2,0-0.4,0.2-0.4,0.4c0,0.2,0.2,0.4,0.4,0.4h2c0.2,0,0.4-0.2,0.4-0.4
				C19.5,24.9,19.3,24.7,19.1,24.7z"/>
			<g>
				<path class="st3" d="M22.8,11.8c-2.9,0-5.3,2.4-5.3,5.3c0,0.4,0.4,0.8,0.8,0.8c0.4,0,0.8-0.4,0.8-0.8c0-2,1.6-3.7,3.7-3.7
					c2,0,3.7,1.6,3.7,3.7v3.1h1.6v-3.1C28.1,14.2,25.7,11.8,22.8,11.8z"/>
				<path class="st3" d="M22.8,11.8c2.9,0,5.3,2.4,5.3,5.3c0,0.4-0.4,0.8-0.8,0.8c-0.4,0-0.8-0.4-0.8-0.8c0-2-1.6-3.7-3.7-3.7
					c-2,0-3.7,1.6-3.7,3.7v3.1h-1.6v-3.1C17.5,14.2,19.9,11.8,22.8,11.8z"/>
			</g>
		</g>
		<path class="st3" d="M29.3,20.2h-1.2v0h-1.6v0H16.3c-0.4,0-0.8,0.4-0.8,0.8v11.8c0,0.4,0.4,0.8,0.8,0.8h13c0.4,0,0.8-0.4,0.8-0.8
			V21.1C30.1,20.6,29.8,20.2,29.3,20.2z M24.3,28.9c0,0.8-0.7,1.5-1.5,1.5s-1.5-0.7-1.5-1.5v-3.3c0-0.8,0.7-1.5,1.5-1.5
			s1.5,0.7,1.5,1.5V28.9z"/>
	</g>
</g>
</svg>
