<?xml version="1.0" encoding="utf-8"?>
<!-- Generator: Adobe Illustrator 20.0.0, SVG Export Plug-In . SVG Version: 6.00 Build 0)  -->
<svg version="1.1" id="Layer_1" xmlns="http://www.w3.org/2000/svg" xmlns:xlink="http://www.w3.org/1999/xlink" x="0px" y="0px"
	 viewBox="0 0 45 45" style="enable-background:new 0 0 45 45;" xml:space="preserve">
<style type="text/css">
	.st0{display:none;}
	.st1{display:inline;fill:#F4F5F5;}
	.st2{display:inline;}
	.st3{fill:#0CB6F5;}
	.st4{fill:none;}
	.st5{fill:#F4F5F5;}
	.st6{display:inline;fill:#0CB6F5;}
	.st7{display:inline;fill:#E0F3FA;}
	.st8{fill:#E0F3FA;}
</style>
<g class="st0">
	<circle class="st1" cx="22.5" cy="22.5" r="22.5"/>
	<g class="st2">
		<g>
			<path class="st3" d="M25.2,19.9v-5.4c0-1.5-1.2-2.7-2.7-2.7c-1.5,0-2.7,1.2-2.7,2.7v5.4h-5.4c-1.5,0-2.7,1.2-2.7,2.7
				c0,1.5,1.2,2.7,2.7,2.7h5.4v5.4c0,1.5,1.2,2.7,2.7,2.7c1.5,0,2.7-1.2,2.7-2.7v-5.4h5.4c1.5,0,2.7-1.2,2.7-2.7
				c0-1.5-1.2-2.7-2.7-2.7H25.2z"/>
		</g>
	</g>
</g>
<g class="st0">
	<circle class="st1" cx="22.5" cy="22.5" r="22.5"/>
	<g class="st2">
		<rect x="12.4" y="20.3" transform="matrix(0.6677 -0.7444 0.7444 0.6677 -10.326 23.4829)" class="st3" width="17.5" height="6"/>
		<polyline class="st3" points="11.4,34.1 16.7,32.7 12.3,28.7 11.4,34.1 		"/>
		<rect x="27.5" y="12" transform="matrix(0.6677 -0.7445 0.7445 0.6677 -1.6288 26.2848)" class="st3" width="2.2" height="6"/>
	</g>
</g>
<g class="st0">
	<circle class="st1" cx="22.5" cy="22.5" r="22.5"/>
	<g class="st2">
		<g>
			<path class="st4" d="M19.1,27.2h-2c-0.2,0-0.4,0.2-0.4,0.4c0,0.2,0.2,0.4,0.4,0.4h2c0.2,0,0.4-0.2,0.4-0.4
				C19.5,27.3,19.3,27.2,19.1,27.2z"/>
			<path class="st4" d="M19.1,29.6h-2c-0.2,0-0.4,0.2-0.4,0.4c0,0.2,0.2,0.4,0.4,0.4h2c0.2,0,0.4-0.2,0.4-0.4
				C19.5,29.8,19.3,29.6,19.1,29.6z"/>
			<path class="st4" d="M19.1,24.7h-2c-0.2,0-0.4,0.2-0.4,0.4c0,0.2,0.2,0.4,0.4,0.4h2c0.2,0,0.4-0.2,0.4-0.4
				C19.5,24.9,19.3,24.7,19.1,24.7z"/>
			<g>
				<path class="st3" d="M22.8,11.8c-2.9,0-5.3,2.4-5.3,5.3c0,0.4,0.4,0.8,0.8,0.8c0.4,0,0.8-0.4,0.8-0.8c0-2,1.6-3.7,3.7-3.7
					c2,0,3.7,1.6,3.7,3.7v3.1h1.6v-3.1C28.1,14.2,25.7,11.8,22.8,11.8z"/>
				<path class="st3" d="M22.8,11.8c2.9,0,5.3,2.4,5.3,5.3c0,0.4-0.4,0.8-0.8,0.8c-0.4,0-0.8-0.4-0.8-0.8c0-2-1.6-3.7-3.7-3.7
					c-2,0-3.7,1.6-3.7,3.7v3.1h-1.6v-3.1C17.5,14.2,19.9,11.8,22.8,11.8z"/>
			</g>
		</g>
		<path class="st3" d="M29.3,20.2h-1.2v0h-1.6v0H16.3c-0.4,0-0.8,0.4-0.8,0.8v11.8c0,0.4,0.4,0.8,0.8,0.8h13c0.4,0,0.8-0.4,0.8-0.8
			V21.1C30.1,20.6,29.8,20.2,29.3,20.2z M24.3,28.9c0,0.8-0.7,1.5-1.5,1.5s-1.5-0.7-1.5-1.5v-3.3c0-0.8,0.7-1.5,1.5-1.5
			s1.5,0.7,1.5,1.5V28.9z"/>
	</g>
</g>
<g class="st0">
	<circle class="st1" cx="22.5" cy="22.5" r="22.5"/>
	<g class="st2">
		<path class="st3" d="M28.8,11.8c2.9,0,5.3,2.4,5.3,5.3c0,0.5-0.4,0.8-0.8,0.8c-0.5,0-0.8-0.4-0.8-0.8c0-2-1.7-3.7-3.7-3.7
			c-2,0-3.7,1.7-3.7,3.7v3.2h-1.6v-3.2C23.5,14.2,25.9,11.8,28.8,11.8z"/>
		<path class="st3" d="M26.4,20.3h-1.2v0h-1.6v0H13.3c-0.5,0-0.8,0.4-0.8,0.8V33c0,0.5,0.4,0.8,0.8,0.8h13.1c0.5,0,0.8-0.4,0.8-0.8
			V21.1C27.2,20.6,26.8,20.3,26.4,20.3z M21.3,29c0,0.8-0.7,1.5-1.5,1.5s-1.5-0.7-1.5-1.5v-3.3c0-0.8,0.7-1.5,1.5-1.5
			s1.5,0.7,1.5,1.5V29z"/>
	</g>
</g>
<g class="st0">
	<circle class="st1" cx="22.5" cy="22.5" r="22.5"/>
	<g class="st2">
		<g>
			<path class="st3" d="M30.2,14.5h-3.1v-2c0-0.4-0.3-0.7-0.7-0.7c0,0-0.1,0-0.1,0c0,0,0,0-0.1,0h-7.2H19H19c-0.4,0-0.7,0.3-0.7,0.7
				v2h-3.1c-0.9,0-1.6,0.7-1.6,1.6v1.1v1.4H15v13.7c0,0.9,0.7,1.6,1.6,1.6h12.4c0.9,0,1.6-0.7,1.6-1.6V18.6h1.3v-1.4v-1.1
				C31.8,15.2,31.1,14.5,30.2,14.5z M19.7,13.2h6v1.3h-6V13.2z M29,32.3c0,0.1,0,0.1-0.1,0.1H16.5c-0.1,0-0.1,0-0.1-0.1V18.6H29
				V32.3z M30.4,17.2H15v-1.1c0-0.1,0-0.1,0.1-0.1h15.1c0.1,0,0.1,0.1,0.1,0.1V17.2L30.4,17.2z"/>
			<rect x="25.3" y="20.3" class="st3" width="1.4" height="10.9"/>
			<rect x="22" y="20.3" class="st3" width="1.4" height="10.9"/>
			<rect x="18.7" y="20.3" class="st3" width="1.4" height="10.9"/>
		</g>
	</g>
</g>
<g>
	<circle class="st5" cx="22.5" cy="22.5" r="22.5"/>
	<g>
		<path class="st3" d="M24.2,12.2c-6.8,0-11.1,4.9-11.2,11.4H9.1c-0.2,0-0.5,0.1-0.5,0.4c-0.1,0.2-0.1,0.5,0,0.6l6.8,8.7
			c0.1,0.1,0.2,0.2,0.5,0.2c0.2,0,0.3-0.1,0.5-0.2l6.8-8.7c0.1-0.1,0.1-0.3,0-0.6c-0.1-0.2-0.3-0.4-0.5-0.4h-4
			c0.1-8.6,4.4-10.5,5.5-11.3C24.4,12.2,24.4,12.2,24.2,12.2z"/>
		<path class="st3" d="M23.1,33.5c6.8,0,11.1-4.9,11.2-11.4h4c0.2,0,0.5-0.1,0.5-0.4c0.1-0.2,0.1-0.5,0-0.6l-6.9-8.7
			c-0.1-0.1-0.2-0.2-0.5-0.2c-0.2,0-0.3,0.1-0.5,0.2l-6.8,8.7c-0.1,0.1-0.1,0.3,0,0.6c0.1,0.2,0.3,0.4,0.5,0.4h4
			c-0.1,8.6-4.4,10.5-5.5,11.3C22.8,33.5,22.8,33.5,23.1,33.5z"/>
	</g>
</g>
<g class="st0">
	<circle class="st1" cx="22.5" cy="22.5" r="22.5"/>
	<path class="st6" d="M29.3,27l4.5-4.2l-4.5-4.2v2.7H24V16h2.7l-4.2-4.5L18.3,16H21v5.3h-5.3v-2.7l-4.5,4.2l4.5,4.2v-2.7H21v5.3
		h-2.7l4.2,4.5l4.2-4.5H24v-5.3h5.3V27z"/>
</g>
<g class="st0">
	<ellipse class="st1" cx="22.5" cy="22.5" rx="22.5" ry="22.6"/>
	<g class="st2">
		<g>
			<path class="st3" d="M31.6,20.3c0.5-0.6,1.4-0.9,2.2-0.9c0.8,0,1.6,0.3,2.2,0.9c0.6,0.6,0.9,1.4,0.9,2.2c0,0.8-0.3,1.6-0.9,2.2
				c-0.6,0.6-1.4,0.9-2.2,0.9c-0.8,0-1.7-0.3-2.2-0.9c-0.6-0.6-0.9-1.4-0.9-2.2C30.6,21.7,31,20.8,31.6,20.3z"/>
			<path class="st3" d="M33.9,21.9c0.6,0,1.2,0.5,1.2,1.2v0c0,0.7-0.5,1.2-1.2,1.2c-0.7,0-1.2-0.5-1.2-1.2v0
				C32.7,22.4,33.2,21.9,33.9,21.9z"/>
			<path class="st3" d="M33.9,26.8c0.6,0,1.2,0.5,1.2,1.2v0c0,0.6-0.5,1.2-1.2,1.2c-0.7,0-1.2-0.5-1.2-1.2v0
				C32.7,27.3,33.2,26.8,33.9,26.8z"/>
			<path class="st3" d="M31.8,31.3c0.6-0.3,1.3-0.2,1.6,0.4c0.3,0.6,0.2,1.3-0.4,1.6l0,0c-0.6,0.3-1.3,0.2-1.6-0.4
				S31.2,31.7,31.8,31.3L31.8,31.3L31.8,31.3z"/>
			<path class="st3" d="M27.6,31.7L27.6,31.7c0.7,0,1.2,0.5,1.2,1.2c0,0.6-0.5,1.2-1.2,1.2h0c-0.7,0-1.2-0.5-1.2-1.2
				C26.4,32.2,26.9,31.7,27.6,31.7z"/>
			<path class="st3" d="M23.7,29.1c0.6-0.1,1.3,0.3,1.4,0.9v0c0.1,0.6-0.3,1.3-0.9,1.4c-0.6,0.1-1.3-0.3-1.4-0.9v0
				C22.7,29.9,23.1,29.2,23.7,29.1z"/>
			<path class="st3" d="M23.9,24.2c0.6,0,1.2,0.5,1.2,1.2v0c0,0.7-0.5,1.2-1.2,1.2s-1.2-0.5-1.2-1.2v0
				C22.7,24.8,23.3,24.2,23.9,24.2z"/>
			<path class="st3" d="M22.7,20.5c0-0.6,0.5-1.2,1.2-1.2s1.2,0.5,1.2,1.2v0c0,0.7-0.5,1.2-1.2,1.2S22.7,21.2,22.7,20.5L22.7,20.5z"
				/>
			<path class="st3" d="M23.7,14.4c0.6-0.1,1.2,0.4,1.3,1l0,0c0.1,0.6-0.4,1.2-1,1.3c-0.6,0.1-1.2-0.4-1.3-1v0
				C22.6,15.1,23.1,14.5,23.7,14.4z"/>
			<path class="st3" d="M20.4,11.7L20.4,11.7c0.7,0,1.2,0.5,1.2,1.2c0,0.7-0.5,1.2-1.2,1.2h0c-0.6,0-1.2-0.5-1.2-1.2
				C19.2,12.3,19.7,11.7,20.4,11.7z"/>
			<path class="st3" d="M15,12.3c0.6-0.3,1.3-0.1,1.6,0.5c0.1,0.2,0.1,0.4,0.1,0.6c0,0.4-0.2,0.8-0.6,1.1c-0.6,0.3-1.3,0.1-1.6-0.5
				C14.2,13.3,14.4,12.6,15,12.3L15,12.3L15,12.3z"/>
			<path class="st3" d="M12.8,17.6c0-0.7,0.5-1.2,1.2-1.2c0.7,0,1.2,0.5,1.2,1.2v0c0,0.6-0.5,1.2-1.2,1.2
				C13.3,18.8,12.8,18.3,12.8,17.6L12.8,17.6z"/>
			<path class="st3" d="M12.8,22.5c0-0.7,0.5-1.2,1.2-1.2c0.7,0,1.2,0.5,1.2,1.2v0c0,0.6-0.5,1.2-1.2,1.2
				C13.3,23.7,12.8,23.1,12.8,22.5L12.8,22.5z"/>
			<path class="st3" d="M16.6,25.6c-0.5,0.5-1.2,0.5-1.7,0l-1-1l-1,1c-0.5,0.5-1.2,0.5-1.7,0s-0.5-1.2,0-1.7l1-1l-1-1
				c-0.5-0.5-0.5-1.2,0-1.7c0.5-0.5,1.2-0.5,1.7,0l1,1l1-1c0.5-0.5,1.2-0.5,1.7,0c0.5,0.5,0.5,1.2,0,1.7l-1,1l1,1
				C17.1,24.4,17.1,25.1,16.6,25.6z"/>
		</g>
	</g>
</g>
<g class="st0">
	<ellipse class="st1" cx="22.5" cy="22.5" rx="22.5" ry="22.6"/>
	<path class="st6" d="M31.9,25.7c0.3-0.9,0.4-1.9,0.4-2.9c0-1.1-0.2-2.2-0.6-3.3c0.7-0.4,1.1-1.1,1.1-1.9c0-1.2-0.9-2.1-2.1-2.1
		c-0.5,0-0.9,0.2-1.2,0.4c-1.3-1.4-3-2.3-5-2.8c0-1.1-1-2-2.1-2s-2.1,0.9-2.1,2c-1.9,0.4-3.6,1.4-5,2.8c-0.3-0.3-0.8-0.4-1.2-0.4
		c-1.2,0-2.1,0.9-2.1,2.1c0,0.8,0.5,1.5,1.1,1.9c-0.4,1-0.6,2.1-0.6,3.3c0,1,0.2,2,0.4,2.9c-0.3,0.2-0.6,0.4-0.8,0.8
		c-0.6,1-0.2,2.3,0.8,2.9c0.6,0.4,1.4,0.3,2,0c1.4,1.5,3.2,2.6,5.2,3c0,1.1,1,2,2.1,2c1.1,0,2.1-0.9,2.1-2c2-0.4,3.8-1.5,5.2-3
		c0.6,0.3,1.4,0.3,2,0c1-0.6,1.4-1.8,0.8-2.9C32.5,26.1,32.2,25.9,31.9,25.7z M31.7,22.7c0,0.9-0.1,1.8-0.4,2.7
		c-0.5-0.1-1.1-0.1-1.6,0.2c-0.4,0.2-0.6,0.5-0.8,0.8l-4.5-2.8c0.1-0.3,0.2-0.5,0.2-0.9c0-0.3-0.1-0.6-0.2-0.8l4.7-2.9
		c0.4,0.5,1,0.8,1.6,0.8c0.1,0,0.3,0,0.4,0C31.6,20.6,31.7,21.7,31.7,22.7z M29.1,16.3c-0.3,0.4-0.5,0.8-0.5,1.3
		c0,0.3,0.1,0.6,0.2,0.8l-4.7,2.9c-0.3-0.4-0.8-0.7-1.3-0.7v-5.4c0.9-0.1,1.5-0.7,1.7-1.6C26.3,14.1,27.9,15,29.1,16.3z M20.5,13.7
		c0.2,0.8,0.9,1.5,1.7,1.6v5.4c-0.5,0.1-1,0.3-1.3,0.7l-4.7-2.9c0.1-0.3,0.2-0.5,0.2-0.8c0-0.5-0.2-0.9-0.5-1.3
		C17.1,15,18.7,14.1,20.5,13.7z M13.3,22.7c0-1.1,0.2-2.1,0.5-3.1c0.1,0,0.3,0,0.4,0c0.7,0,1.2-0.3,1.6-0.8l4.7,2.9
		c-0.1,0.3-0.2,0.5-0.2,0.9c0,0.3,0.1,0.6,0.2,0.9L16,26.4c-0.2-0.3-0.5-0.6-0.8-0.8c-0.5-0.3-1.1-0.3-1.6-0.2
		C13.4,24.6,13.3,23.7,13.3,22.7z M15.7,29c0.1-0.1,0.3-0.3,0.4-0.5c0.3-0.5,0.3-1,0.2-1.5l4.6-2.9c0.3,0.4,0.8,0.7,1.3,0.7v5.4
		c-0.9,0.1-1.5,0.7-1.7,1.6C18.6,31.3,16.9,30.3,15.7,29z M24.5,31.8c-0.2-0.8-0.9-1.4-1.7-1.6v-5.4c0.5-0.1,1-0.3,1.3-0.7l4.6,2.9
		c-0.1,0.5-0.1,1,0.2,1.5c0.1,0.2,0.2,0.3,0.4,0.5C28.1,30.3,26.4,31.3,24.5,31.8z"/>
</g>
<g class="st0">
	<circle class="st1" cx="22.5" cy="22.5" r="22.5"/>
	<path class="st6" d="M29.4,14c-1.9-1.6-4.3-2.5-7-2.5c-6,0-10.9,4.9-10.9,10.9s4.9,10.9,10.9,10.9c3,0,5.7-1.2,7.7-3.2l-1.3-1.3
		c-1.6,1.6-3.9,2.7-6.4,2.7c-5,0-9.1-4.1-9.1-9.1s4.1-9.1,9.1-9.1c2.2,0,4.1,0.8,5.7,2L25,18.4h5.6h2h0.1v-7.6L29.4,14z"/>
</g>
<g class="st0">
	<circle class="st1" cx="22.5" cy="22.5" r="22.5"/>
	<g class="st2">
		<path class="st3" d="M22.5,31.6c-0.2,0-0.4,0-0.6,0c-5.1,0-9.2-4.1-9.2-9.2c0-5.1,4.1-9.2,9.2-9.2c2.2,0,4.2,0.8,5.8,2.1l-3.2,3.2
			h5.7h2h0.1v-7.8L29,13.9c-1.9-1.6-4.4-2.6-7.1-2.6c-6.1,0-11.1,5-11.1,11.1s5,11.1,11.1,11.1c0.7,0,1.3-0.1,2-0.2
			C23.3,32.8,22.9,32.2,22.5,31.6z"/>
		<g>
			<path class="st3" d="M28.3,22.3c-3.3,0-5.9,2.6-5.9,5.9c0,1,0.2,1.9,0.7,2.7c0.3,0.6,0.8,1.2,1.3,1.7c1,0.9,2.4,1.5,3.9,1.5
				c3.3,0,5.9-2.6,5.9-5.9S31.5,22.3,28.3,22.3z M31.7,31l-0.6,0.6l-2.8-2.8l-2.8,2.8L24.9,31l2.8-2.8l-2.8-2.8l0.6-0.6l2.8,2.8
				l2.8-2.8l0.6,0.6l-2.8,2.8L31.7,31z"/>
		</g>
	</g>
</g>
<g class="st0">
	<circle class="st1" cx="22.5" cy="22.5" r="22.5"/>
	<g class="st2">
		<path class="st3" d="M31.3,14.2l1.6,1.6c0.4,0.4,0.4,1,0,1.4L19.9,30.4c-0.4,0.4-1,0.4-1.4,0L12,23.9c-0.4-0.4-0.4-1,0-1.4
			l1.6-1.6c0.4-0.4,1-0.4,1.4,0l4.1,4.1l10.8-10.8C30.3,13.9,31,13.9,31.3,14.2z"/>
	</g>
</g>
<g class="st0">
	<circle class="st1" cx="22.5" cy="22.7" r="22.5"/>
	<path class="st6" d="M30.4,27.1c-1.3-0.6-2-2.3-2.2-5.4c-0.2-3.6-1-7-5.2-7.6c-0.1-1.3-0.9-1.8-1.7-1.8c-0.8,0-1.6,0.6-1.7,1.8
		c-4.2,0.7-4.9,4-5.2,7.6c-0.2,2.9-0.9,4.8-2.2,5.4c-0.5,0.3-0.5,0.2-0.5,1.1c0,0.9,0,0.9,0.9,0.9h17.5c0.9,0,0.9,0,0.9-0.9
		C30.9,27.4,30.9,27.4,30.4,27.1z M21.3,33.3c1.3,0,2.6-0.8,2.6-2.5h-5.2C18.7,32.5,19.9,33.3,21.3,33.3z"/>
</g>
<g class="st0">
	<circle class="st7" cx="22.5" cy="22.5" r="22.5"/>
	<g class="st2">
		<g>
			<path class="st3" d="M25.2,19.9v-5.4c0-1.5-1.2-2.7-2.7-2.7c-1.5,0-2.7,1.2-2.7,2.7v5.4h-5.4c-1.5,0-2.7,1.2-2.7,2.7
				c0,1.5,1.2,2.7,2.7,2.7h5.4v5.4c0,1.5,1.2,2.7,2.7,2.7c1.5,0,2.7-1.2,2.7-2.7v-5.4h5.4c1.5,0,2.7-1.2,2.7-2.7
				c0-1.5-1.2-2.7-2.7-2.7H25.2z"/>
		</g>
	</g>
</g>
<g class="st0">
	<circle class="st7" cx="22.5" cy="22.5" r="22.5"/>
	<g class="st2">
		<rect x="12.4" y="20.3" transform="matrix(0.6677 -0.7444 0.7444 0.6677 -10.326 23.4829)" class="st3" width="17.5" height="6"/>
		<polyline class="st3" points="11.4,34.1 16.7,32.7 12.3,28.7 11.4,34.1 		"/>
		<rect x="27.5" y="12" transform="matrix(0.6677 -0.7445 0.7445 0.6677 -1.6288 26.2848)" class="st3" width="2.2" height="6"/>
	</g>
</g>
<g class="st0">
	<circle class="st7" cx="22.5" cy="22.5" r="22.5"/>
	<g class="st2">
		<g>
			<path class="st4" d="M19.1,27.2h-2c-0.2,0-0.4,0.2-0.4,0.4c0,0.2,0.2,0.4,0.4,0.4h2c0.2,0,0.4-0.2,0.4-0.4
				C19.5,27.3,19.3,27.2,19.1,27.2z"/>
			<path class="st4" d="M19.1,29.6h-2c-0.2,0-0.4,0.2-0.4,0.4c0,0.2,0.2,0.4,0.4,0.4h2c0.2,0,0.4-0.2,0.4-0.4
				C19.5,29.8,19.3,29.6,19.1,29.6z"/>
			<path class="st4" d="M19.1,24.7h-2c-0.2,0-0.4,0.2-0.4,0.4c0,0.2,0.2,0.4,0.4,0.4h2c0.2,0,0.4-0.2,0.4-0.4
				C19.5,24.9,19.3,24.7,19.1,24.7z"/>
			<g>
				<path class="st3" d="M22.8,11.8c-2.9,0-5.3,2.4-5.3,5.3c0,0.4,0.4,0.8,0.8,0.8c0.4,0,0.8-0.4,0.8-0.8c0-2,1.6-3.7,3.7-3.7
					c2,0,3.7,1.6,3.7,3.7v3.1h1.6v-3.1C28.1,14.2,25.7,11.8,22.8,11.8z"/>
				<path class="st3" d="M22.8,11.8c2.9,0,5.3,2.4,5.3,5.3c0,0.4-0.4,0.8-0.8,0.8c-0.4,0-0.8-0.4-0.8-0.8c0-2-1.6-3.7-3.7-3.7
					c-2,0-3.7,1.6-3.7,3.7v3.1h-1.6v-3.1C17.5,14.2,19.9,11.8,22.8,11.8z"/>
			</g>
		</g>
		<path class="st3" d="M29.3,20.2h-1.2v0h-1.6v0H16.3c-0.4,0-0.8,0.4-0.8,0.8v11.8c0,0.4,0.4,0.8,0.8,0.8h13c0.4,0,0.8-0.4,0.8-0.8
			V21.1C30.1,20.6,29.8,20.2,29.3,20.2z M24.3,28.9c0,0.8-0.7,1.5-1.5,1.5s-1.5-0.7-1.5-1.5v-3.3c0-0.8,0.7-1.5,1.5-1.5
			s1.5,0.7,1.5,1.5V28.9z"/>
	</g>
</g>
<g class="st0">
	<circle class="st7" cx="22.5" cy="22.5" r="22.5"/>
	<g class="st2">
		<path class="st3" d="M28.8,11.8c2.9,0,5.3,2.4,5.3,5.3c0,0.5-0.4,0.8-0.8,0.8c-0.5,0-0.8-0.4-0.8-0.8c0-2-1.7-3.7-3.7-3.7
			c-2,0-3.7,1.7-3.7,3.7v3.2h-1.6v-3.2C23.5,14.2,25.9,11.8,28.8,11.8z"/>
		<path class="st3" d="M26.4,20.3h-1.2v0h-1.6v0H13.3c-0.5,0-0.8,0.4-0.8,0.8V33c0,0.5,0.4,0.8,0.8,0.8h13.1c0.5,0,0.8-0.4,0.8-0.8
			V21.1C27.2,20.6,26.8,20.3,26.4,20.3z M21.3,29c0,0.8-0.7,1.5-1.5,1.5s-1.5-0.7-1.5-1.5v-3.3c0-0.8,0.7-1.5,1.5-1.5
			s1.5,0.7,1.5,1.5V29z"/>
	</g>
</g>
<g class="st0">
	<circle class="st7" cx="22.5" cy="22.5" r="22.5"/>
	<g class="st2">
		<g>
			<path class="st3" d="M30.2,14.5h-3.1v-2c0-0.4-0.3-0.7-0.7-0.7c0,0-0.1,0-0.1,0c0,0,0,0-0.1,0h-7.2H19H19c-0.4,0-0.7,0.3-0.7,0.7
				v2h-3.1c-0.9,0-1.6,0.7-1.6,1.6v1.1v1.4H15v13.7c0,0.9,0.7,1.6,1.6,1.6h12.4c0.9,0,1.6-0.7,1.6-1.6V18.6h1.3v-1.4v-1.1
				C31.8,15.2,31.1,14.5,30.2,14.5z M19.7,13.2h6v1.3h-6V13.2z M29,32.3c0,0.1,0,0.1-0.1,0.1H16.5c-0.1,0-0.1,0-0.1-0.1V18.6H29
				V32.3z M30.4,17.2H15v-1.1c0-0.1,0-0.1,0.1-0.1h15.1c0.1,0,0.1,0.1,0.1,0.1V17.2L30.4,17.2z"/>
			<rect x="25.3" y="20.3" class="st3" width="1.4" height="10.9"/>
			<rect x="22" y="20.3" class="st3" width="1.4" height="10.9"/>
			<rect x="18.7" y="20.3" class="st3" width="1.4" height="10.9"/>
		</g>
	</g>
</g>
<g>
	<circle class="st8" cx="22.5" cy="22.5" r="22.5"/>
	<g>
		<path class="st3" d="M24.2,12.2c-6.8,0-11.1,4.9-11.2,11.4H9.1c-0.2,0-0.5,0.1-0.5,0.4c-0.1,0.2-0.1,0.5,0,0.6l6.8,8.7
			c0.1,0.1,0.2,0.2,0.5,0.2c0.2,0,0.3-0.1,0.5-0.2l6.8-8.7c0.1-0.1,0.1-0.3,0-0.6c-0.1-0.2-0.3-0.4-0.5-0.4h-4
			c0.1-8.6,4.4-10.5,5.5-11.3C24.4,12.2,24.4,12.2,24.2,12.2z"/>
		<path class="st3" d="M23.1,33.5c6.8,0,11.1-4.9,11.2-11.4h4c0.2,0,0.5-0.1,0.5-0.4c0.1-0.2,0.1-0.5,0-0.6l-6.9-8.7
			c-0.1-0.1-0.2-0.2-0.5-0.2c-0.2,0-0.3,0.1-0.5,0.2l-6.8,8.7c-0.1,0.1-0.1,0.3,0,0.6c0.1,0.2,0.3,0.4,0.5,0.4h4
			c-0.1,8.6-4.4,10.5-5.5,11.3C22.8,33.5,22.8,33.5,23.1,33.5z"/>
	</g>
</g>
<g class="st0">
	<circle class="st7" cx="22.5" cy="22.5" r="22.5"/>
	<path class="st6" d="M29.3,27l4.5-4.2l-4.5-4.2v2.7H24V16h2.7l-4.2-4.5L18.3,16H21v5.3h-5.3v-2.7l-4.5,4.2l4.5,4.2v-2.7H21v5.3
		h-2.7l4.2,4.5l4.2-4.5H24v-5.3h5.3V27z"/>
</g>
<g class="st0">
	<ellipse class="st7" cx="22.5" cy="22.5" rx="22.5" ry="22.6"/>
	<g class="st2">
		<g>
			<path class="st3" d="M31.6,20.3c0.5-0.6,1.4-0.9,2.2-0.9c0.8,0,1.6,0.3,2.2,0.9c0.6,0.6,0.9,1.4,0.9,2.2c0,0.8-0.3,1.6-0.9,2.2
				c-0.6,0.6-1.4,0.9-2.2,0.9c-0.8,0-1.7-0.3-2.2-0.9c-0.6-0.6-0.9-1.4-0.9-2.2C30.6,21.7,31,20.8,31.6,20.3z"/>
			<path class="st3" d="M33.9,21.9c0.6,0,1.2,0.5,1.2,1.2v0c0,0.7-0.5,1.2-1.2,1.2c-0.7,0-1.2-0.5-1.2-1.2v0
				C32.7,22.4,33.2,21.9,33.9,21.9z"/>
			<path class="st3" d="M33.9,26.8c0.6,0,1.2,0.5,1.2,1.2v0c0,0.6-0.5,1.2-1.2,1.2c-0.7,0-1.2-0.5-1.2-1.2v0
				C32.7,27.3,33.2,26.8,33.9,26.8z"/>
			<path class="st3" d="M31.8,31.3c0.6-0.3,1.3-0.2,1.6,0.4c0.3,0.6,0.2,1.3-0.4,1.6l0,0c-0.6,0.3-1.3,0.2-1.6-0.4
				S31.2,31.7,31.8,31.3L31.8,31.3L31.8,31.3z"/>
			<path class="st3" d="M27.6,31.7L27.6,31.7c0.7,0,1.2,0.5,1.2,1.2c0,0.6-0.5,1.2-1.2,1.2h0c-0.7,0-1.2-0.5-1.2-1.2
				C26.4,32.2,26.9,31.7,27.6,31.7z"/>
			<path class="st3" d="M23.7,29.1c0.6-0.1,1.3,0.3,1.4,0.9v0c0.1,0.6-0.3,1.3-0.9,1.4c-0.6,0.1-1.3-0.3-1.4-0.9v0
				C22.7,29.9,23.1,29.2,23.7,29.1z"/>
			<path class="st3" d="M23.9,24.2c0.6,0,1.2,0.5,1.2,1.2v0c0,0.7-0.5,1.2-1.2,1.2s-1.2-0.5-1.2-1.2v0
				C22.7,24.8,23.3,24.2,23.9,24.2z"/>
			<path class="st3" d="M22.7,20.5c0-0.6,0.5-1.2,1.2-1.2s1.2,0.5,1.2,1.2v0c0,0.7-0.5,1.2-1.2,1.2S22.7,21.2,22.7,20.5L22.7,20.5z"
				/>
			<path class="st3" d="M23.7,14.4c0.6-0.1,1.2,0.4,1.3,1l0,0c0.1,0.6-0.4,1.2-1,1.3c-0.6,0.1-1.2-0.4-1.3-1v0
				C22.6,15.1,23.1,14.5,23.7,14.4z"/>
			<path class="st3" d="M20.4,11.7L20.4,11.7c0.7,0,1.2,0.5,1.2,1.2c0,0.7-0.5,1.2-1.2,1.2h0c-0.6,0-1.2-0.5-1.2-1.2
				C19.2,12.3,19.7,11.7,20.4,11.7z"/>
			<path class="st3" d="M15,12.3c0.6-0.3,1.3-0.1,1.6,0.5c0.1,0.2,0.1,0.4,0.1,0.6c0,0.4-0.2,0.8-0.6,1.1c-0.6,0.3-1.3,0.1-1.6-0.5
				C14.2,13.3,14.4,12.6,15,12.3L15,12.3L15,12.3z"/>
			<path class="st3" d="M12.8,17.6c0-0.7,0.5-1.2,1.2-1.2c0.7,0,1.2,0.5,1.2,1.2v0c0,0.6-0.5,1.2-1.2,1.2
				C13.3,18.8,12.8,18.3,12.8,17.6L12.8,17.6z"/>
			<path class="st3" d="M12.8,22.5c0-0.7,0.5-1.2,1.2-1.2c0.7,0,1.2,0.5,1.2,1.2v0c0,0.6-0.5,1.2-1.2,1.2
				C13.3,23.7,12.8,23.1,12.8,22.5L12.8,22.5z"/>
			<path class="st3" d="M16.6,25.6c-0.5,0.5-1.2,0.5-1.7,0l-1-1l-1,1c-0.5,0.5-1.2,0.5-1.7,0s-0.5-1.2,0-1.7l1-1l-1-1
				c-0.5-0.5-0.5-1.2,0-1.7c0.5-0.5,1.2-0.5,1.7,0l1,1l1-1c0.5-0.5,1.2-0.5,1.7,0c0.5,0.5,0.5,1.2,0,1.7l-1,1l1,1
				C17.1,24.4,17.1,25.1,16.6,25.6z"/>
		</g>
	</g>
</g>
<g class="st0">
	<ellipse class="st7" cx="22.5" cy="22.5" rx="22.5" ry="22.6"/>
	<path class="st6" d="M31.9,25.7c0.3-0.9,0.4-1.9,0.4-2.9c0-1.1-0.2-2.2-0.6-3.3c0.7-0.4,1.1-1.1,1.1-1.9c0-1.2-0.9-2.1-2.1-2.1
		c-0.5,0-0.9,0.2-1.2,0.4c-1.3-1.4-3-2.3-5-2.8c0-1.1-1-2-2.1-2s-2.1,0.9-2.1,2c-1.9,0.4-3.6,1.4-5,2.8c-0.3-0.3-0.8-0.4-1.2-0.4
		c-1.2,0-2.1,0.9-2.1,2.1c0,0.8,0.5,1.5,1.1,1.9c-0.4,1-0.6,2.1-0.6,3.3c0,1,0.2,2,0.4,2.9c-0.3,0.2-0.6,0.4-0.8,0.8
		c-0.6,1-0.2,2.3,0.8,2.9c0.6,0.4,1.4,0.3,2,0c1.4,1.5,3.2,2.6,5.2,3c0,1.1,1,2,2.1,2c1.1,0,2.1-0.9,2.1-2c2-0.4,3.8-1.5,5.2-3
		c0.6,0.3,1.4,0.3,2,0c1-0.6,1.4-1.8,0.8-2.9C32.5,26.1,32.2,25.9,31.9,25.7z M31.7,22.7c0,0.9-0.1,1.8-0.4,2.7
		c-0.5-0.1-1.1-0.1-1.6,0.2c-0.4,0.2-0.6,0.5-0.8,0.8l-4.5-2.8c0.1-0.3,0.2-0.5,0.2-0.9c0-0.3-0.1-0.6-0.2-0.8l4.7-2.9
		c0.4,0.5,1,0.8,1.6,0.8c0.1,0,0.3,0,0.4,0C31.6,20.6,31.7,21.7,31.7,22.7z M29.1,16.3c-0.3,0.4-0.5,0.8-0.5,1.3
		c0,0.3,0.1,0.6,0.2,0.8l-4.7,2.9c-0.3-0.4-0.8-0.7-1.3-0.7v-5.4c0.9-0.1,1.5-0.7,1.7-1.6C26.3,14.1,27.9,15,29.1,16.3z M20.5,13.7
		c0.2,0.8,0.9,1.5,1.7,1.6v5.4c-0.5,0.1-1,0.3-1.3,0.7l-4.7-2.9c0.1-0.3,0.2-0.5,0.2-0.8c0-0.5-0.2-0.9-0.5-1.3
		C17.1,15,18.7,14.1,20.5,13.7z M13.3,22.7c0-1.1,0.2-2.1,0.5-3.1c0.1,0,0.3,0,0.4,0c0.7,0,1.2-0.3,1.6-0.8l4.7,2.9
		c-0.1,0.3-0.2,0.5-0.2,0.9c0,0.3,0.1,0.6,0.2,0.9L16,26.4c-0.2-0.3-0.5-0.6-0.8-0.8c-0.5-0.3-1.1-0.3-1.6-0.2
		C13.4,24.6,13.3,23.7,13.3,22.7z M15.7,29c0.1-0.1,0.3-0.3,0.4-0.5c0.3-0.5,0.3-1,0.2-1.5l4.6-2.9c0.3,0.4,0.8,0.7,1.3,0.7v5.4
		c-0.9,0.1-1.5,0.7-1.7,1.6C18.6,31.3,16.9,30.3,15.7,29z M24.5,31.8c-0.2-0.8-0.9-1.4-1.7-1.6v-5.4c0.5-0.1,1-0.3,1.3-0.7l4.6,2.9
		c-0.1,0.5-0.1,1,0.2,1.5c0.1,0.2,0.2,0.3,0.4,0.5C28.1,30.3,26.4,31.3,24.5,31.8z"/>
</g>
<g class="st0">
	<circle class="st7" cx="22.5" cy="22.5" r="22.5"/>
	<path class="st6" d="M29.4,14c-1.9-1.6-4.3-2.5-7-2.5c-6,0-10.9,4.9-10.9,10.9s4.9,10.9,10.9,10.9c3,0,5.7-1.2,7.7-3.2l-1.3-1.3
		c-1.6,1.6-3.9,2.7-6.4,2.7c-5,0-9.1-4.1-9.1-9.1s4.1-9.1,9.1-9.1c2.2,0,4.1,0.8,5.7,2L25,18.4h5.6h2h0.1v-7.6L29.4,14z"/>
</g>
<g class="st0">
	<circle class="st7" cx="22.5" cy="22.5" r="22.5"/>
	<g class="st2">
		<path class="st3" d="M22.5,31.6c-0.2,0-0.4,0-0.6,0c-5.1,0-9.2-4.1-9.2-9.2c0-5.1,4.1-9.2,9.2-9.2c2.2,0,4.2,0.8,5.8,2.1l-3.2,3.2
			h5.7h2h0.1v-7.8L29,13.9c-1.9-1.6-4.4-2.6-7.1-2.6c-6.1,0-11.1,5-11.1,11.1s5,11.1,11.1,11.1c0.7,0,1.3-0.1,2-0.2
			C23.3,32.8,22.9,32.2,22.5,31.6z"/>
		<g>
			<path class="st3" d="M28.3,22.3c-3.3,0-5.9,2.6-5.9,5.9c0,1,0.2,1.9,0.7,2.7c0.3,0.6,0.8,1.2,1.3,1.7c1,0.9,2.4,1.5,3.9,1.5
				c3.3,0,5.9-2.6,5.9-5.9S31.5,22.3,28.3,22.3z M31.7,31l-0.6,0.6l-2.8-2.8l-2.8,2.8L24.9,31l2.8-2.8l-2.8-2.8l0.6-0.6l2.8,2.8
				l2.8-2.8l0.6,0.6l-2.8,2.8L31.7,31z"/>
		</g>
	</g>
</g>
<g class="st0">
	<circle class="st7" cx="22.5" cy="22.7" r="22.5"/>
	<g class="st2">
		<path class="st3" d="M31.3,14.2l1.6,1.6c0.4,0.4,0.4,1,0,1.4L19.9,30.4c-0.4,0.4-1,0.4-1.4,0L12,23.9c-0.4-0.4-0.4-1,0-1.4
			l1.6-1.6c0.4-0.4,1-0.4,1.4,0l4.1,4.1l10.8-10.8C30.3,13.9,31,13.9,31.3,14.2z"/>
	</g>
</g>
<g class="st0">
	<circle class="st7" cx="22.5" cy="22.5" r="22.5"/>
	<path class="st6" d="M30.4,27.1c-1.3-0.6-2-2.3-2.2-5.4c-0.2-3.6-1-7-5.2-7.6c-0.1-1.3-0.9-1.8-1.7-1.8c-0.8,0-1.6,0.6-1.7,1.8
		c-4.2,0.7-4.9,4-5.2,7.6c-0.2,2.9-0.9,4.8-2.2,5.4c-0.5,0.3-0.5,0.2-0.5,1.1c0,0.9,0,0.9,0.9,0.9h17.5c0.9,0,0.9,0,0.9-0.9
		C30.9,27.4,30.9,27.4,30.4,27.1z M21.3,33.3c1.3,0,2.6-0.8,2.6-2.5h-5.2C18.7,32.5,19.9,33.3,21.3,33.3z"/>
</g>
</svg>
