<?xml version="1.0" encoding="utf-8"?>
<svg version="1.1" id="Layer_1" xmlns="http://www.w3.org/2000/svg" xmlns:xlink="http://www.w3.org/1999/xlink" x="0px" y="0px"
	 viewBox="0 0 45 45" style="enable-background:new 0 0 45 45;" xml:space="preserve">
<style type="text/css">
	.st3{fill:#0CB6F5;}
	.st5{fill:#F4F5F5;}
</style>
<g>
	<circle class="st5" cx="22.5" cy="22.5" r="22.5"/>
	<g>
		<path class="st3" d="M28.8,11.8c2.9,0,5.3,2.4,5.3,5.3c0,0.5-0.4,0.8-0.8,0.8c-0.5,0-0.8-0.4-0.8-0.8c0-2-1.7-3.7-3.7-3.7
			c-2,0-3.7,1.7-3.7,3.7v3.2h-1.6v-3.2C23.5,14.2,25.9,11.8,28.8,11.8z"/>
		<path class="st3" d="M26.4,20.3h-1.2v0h-1.6v0H13.3c-0.5,0-0.8,0.4-0.8,0.8V33c0,0.5,0.4,0.8,0.8,0.8h13.1c0.5,0,0.8-0.4,0.8-0.8
			V21.1C27.2,20.6,26.8,20.3,26.4,20.3z M21.3,29c0,0.8-0.7,1.5-1.5,1.5s-1.5-0.7-1.5-1.5v-3.3c0-0.8,0.7-1.5,1.5-1.5
			s1.5,0.7,1.5,1.5V29z"/>
	</g>
</g>
</svg>
