<?xml version="1.0" encoding="utf-8"?>
<!-- Generator: Adobe Illustrator 20.0.0, SVG Export Plug-In . SVG Version: 6.00 Build 0)  -->
<svg version="1.1" id="Layer_1" xmlns="http://www.w3.org/2000/svg" xmlns:xlink="http://www.w3.org/1999/xlink" x="0px" y="0px"
	 viewBox="0 0 55 55" style="enable-background:new 0 0 55 55;" xml:space="preserve">
<style type="text/css">
	.st0{display:none;}
	.st1{display:inline;fill:#34B3E7;}
	.st2{display:inline;}
	.st3{fill:#FFFFFF;}
	.st4{display:inline;fill:#FFFFFF;}
	.st5{fill:#34B3E7;}
	.st6{fill:none;}
	.st7{fill:#525352;}
	.st8{display:inline;fill:#D81F26;}
	.st9{fill:#D81F26;}
	.st10{display:inline;fill:#FAA21B;}
	.st11{fill:#FAA21B;}
</style>
<g class="st0">
	<circle class="st1" cx="27.5" cy="27.5" r="22"/>
	<g class="st2">
		<polygon class="st3" points="12.9,28.8 12.9,34.5 17.6,34.5 23.4,28.8 		"/>
		<polygon class="st3" points="27.3,34.5 27.3,40.3 38.9,28.8 29.9,28.8 24.1,34.5 		"/>
		<polygon class="st3" points="27.7,21.1 27.7,15.3 16.1,26.9 25.3,26.9 31.1,21.1 		"/>
		<polygon class="st3" points="31.8,26.9 42.1,26.9 42.1,21.1 37.5,21.1 		"/>
	</g>
	<rect x="4.5" y="24.9" transform="matrix(0.7118 -0.7024 0.7024 0.7118 -10.9446 26.1927)" class="st4" width="43.9" height="3"/>
</g>
<g class="st0">
	<g class="st2">
		<circle class="st5" cx="27.5" cy="27.5" r="26"/>
		<path class="st3" d="M27.5,54.5c-14.9,0-27-12.1-27-27s12.1-27,27-27s27,12.1,27,27S42.4,54.5,27.5,54.5z M27.5,2.5
			c-13.8,0-25,11.2-25,25s11.2,25,25,25s25-11.2,25-25S41.3,2.5,27.5,2.5z"/>
	</g>
	<g class="st2">
		<circle class="st5" cx="27.5" cy="27.5" r="22"/>
		<g>
			<polygon class="st3" points="36.6,28.5 26,28.5 15.5,28.5 15.5,34.2 26,34.2 26,40 			"/>
			<polygon class="st3" points="39.5,20.8 29,20.8 29,15 18.4,26.5 29,26.5 39.5,26.5 			"/>
		</g>
	</g>
</g>
<g class="st0">
	<g class="st2">
		<circle class="st5" cx="27.5" cy="27.5" r="26"/>
		<path class="st3" d="M27.5,54.5c-14.9,0-27-12.1-27-27s12.1-27,27-27s27,12.1,27,27S42.4,54.5,27.5,54.5z M27.5,2.5
			c-13.8,0-25,11.2-25,25s11.2,25,25,25s25-11.2,25-25S41.3,2.5,27.5,2.5z"/>
	</g>
	<g class="st2">
		<circle class="st5" cx="27.5" cy="27.5" r="22"/>
		<g>
			<polygon class="st3" points="12.9,28.8 12.9,34.5 17.6,34.5 23.4,28.8 			"/>
			<polygon class="st3" points="27.3,34.5 27.3,40.3 38.9,28.8 29.9,28.8 24.1,34.5 			"/>
			<polygon class="st3" points="27.7,21.1 27.7,15.3 16.1,26.9 25.3,26.9 31.1,21.1 			"/>
			<polygon class="st3" points="31.8,26.9 42.1,26.9 42.1,21.1 37.5,21.1 			"/>
		</g>
		<polygon class="st3" points="9.6,45.2 7.7,42.9 43.1,7.8 45.4,9.7 		"/>
	</g>
</g>
<g class="st0">
	<g class="st2">
		<circle class="st5" cx="27.5" cy="27.5" r="22"/>
	</g>
	<g class="st2">
		<g>
			<polygon class="st3" points="40.5,30.9 30,30.9 19.4,30.9 19.4,35.9 30,35.9 30,41 			"/>
		</g>
		<path class="st3" d="M20.1,29.3h14.5c0.3,0,0.3,0,0.3-0.3l0-4.1c0-0.4,0-0.4-0.3-0.7l-2.3-2.2c-3.1-3-6.9-2.9-9.9,0L20,24.1
			c-0.3,0.3-0.3,0.3-0.3,0.7l0,4.1C19.8,29.3,19.8,29.3,20.1,29.3z M27.3,28c-2,0-3.5-1.4-3.5-3.3c0-1.9,1.5-3.3,3.5-3.3
			c2,0,3.5,1.4,3.5,3.3C30.8,26.6,29.3,28,27.3,28z M27.3,26.5c1.1,0,1.9-0.8,1.9-1.8c0-1-0.8-1.8-1.9-1.8c-1.1,0-1.9,0.8-1.9,1.8
			C25.4,25.8,26.2,26.5,27.3,26.5z M20.1,21.5l2.8-1.5c0.6-0.3,0.6-1.5,0.6-1.5c1.6-0.9,6-0.9,7.6,0c0,0,0,1.2,0.6,1.5l2.8,1.5
			l1.6-2.1c-4.1-4.5-13.5-4.5-17.6,0L20.1,21.5z"/>
	</g>
</g>
<g class="st0">
	<circle class="st1" cx="27.5" cy="27.5" r="22"/>
	<rect x="4.5" y="24.9" transform="matrix(0.7118 -0.7024 0.7024 0.7118 -10.9446 26.1927)" class="st4" width="43.9" height="3"/>
	<g class="st2">
		<path class="st6" d="M26.7,22.2c-1.9,0-3.3,1.4-3.3,3.3c0,1,0.4,1.8,1,2.4l0.4-0.4l0.7-0.7c-0.4-0.3-0.6-0.8-0.6-1.4
			c0-1,0.8-1.8,1.8-1.8c0.6,0,1,0.2,1.4,0.6l0.7-0.7l0.4-0.4C28.6,22.5,27.7,22.2,26.7,22.2z"/>
		<polygon class="st3" points="27,31.6 22,36.7 29.1,36.7 29.1,41.8 39.2,31.6 29.1,31.6 		"/>
		<polygon class="st3" points="19.1,31.6 19.1,33.2 20.7,31.6 		"/>
		<path class="st3" d="M33.6,18.8c-4.4-3.1-11.9-2.6-15.4,1.4l1.5,2.1l2.7-1.5c0.6-0.3,0.6-1.5,0.6-1.5c1.5-0.9,5.8-0.9,7.3,0
			c0,0,0,1.2,0.6,1.5l0.4,0.2l0.3-0.3L33.6,18.8z"/>
		<path class="st3" d="M26.7,23.7c-1,0-1.8,0.8-1.8,1.8c0,0.6,0.2,1,0.6,1.4l1-1l0.5-0.5l1-1C27.8,23.9,27.3,23.7,26.7,23.7z"/>
		<path class="st3" d="M24.4,27.9c-0.6-0.6-1-1.5-1-2.4c0-1.9,1.4-3.3,3.3-3.3c1,0,1.8,0.4,2.4,1l1.4-1.4c-2.8-2.1-6-1.8-8.6,0.8
			l-2.2,2.2c-0.3,0.3-0.3,0.3-0.3,0.7l0,4.1c0,0.3,0,0.3,0.3,0.3h2.6l1.2-1.2L24.4,27.9z"/>
		<path class="st3" d="M28.6,30h5.7c0.3,0,0.3,0,0.3-0.3l0-4.1c0-0.4,0-0.4-0.3-0.7L34,24.6L28.6,30z"/>
	</g>
</g>
<g class="st0">
	<g class="st2">
		<circle class="st5" cx="27.5" cy="27.5" r="26"/>
		<path class="st3" d="M27.5,54.5c-14.9,0-27-12.1-27-27s12.1-27,27-27s27,12.1,27,27S42.4,54.5,27.5,54.5z M27.5,2.5
			c-13.8,0-25,11.2-25,25s11.2,25,25,25s25-11.2,25-25S41.3,2.5,27.5,2.5z"/>
	</g>
	<g class="st2">
		<circle class="st5" cx="27.5" cy="27.5" r="22"/>
	</g>
	<g class="st2">
		<g>
			<polygon class="st3" points="40.5,29.7 30,29.7 19.4,29.7 19.4,34.8 30,34.8 30,39.9 			"/>
		</g>
		<path class="st3" d="M20.1,28.1h14.5c0.3,0,0.3,0,0.3-0.3l0-4.1c0-0.4,0-0.4-0.3-0.7l-2.3-2.2c-3.1-3-6.9-2.9-9.9,0L20,23
			c-0.3,0.3-0.3,0.3-0.3,0.7l0,4.1C19.8,28.1,19.8,28.1,20.1,28.1z M27.3,26.9c-2,0-3.5-1.4-3.5-3.3c0-1.9,1.5-3.3,3.5-3.3
			c2,0,3.5,1.4,3.5,3.3C30.8,25.5,29.3,26.9,27.3,26.9z M27.3,25.4c1.1,0,1.9-0.8,1.9-1.8c0-1-0.8-1.8-1.9-1.8
			c-1.1,0-1.9,0.8-1.9,1.8C25.4,24.6,26.2,25.4,27.3,25.4z M20.1,20.4l2.8-1.5c0.6-0.3,0.6-1.5,0.6-1.5c1.6-0.9,6-0.9,7.6,0
			c0,0,0,1.2,0.6,1.5l2.8,1.5l1.6-2.1c-4.1-4.5-13.5-4.5-17.6,0L20.1,20.4z"/>
	</g>
</g>
<g class="st0">
	<g class="st2">
		<circle class="st5" cx="27.5" cy="27.5" r="26"/>
		<path class="st3" d="M27.5,54.5c-14.9,0-27-12.1-27-27s12.1-27,27-27s27,12.1,27,27S42.4,54.5,27.5,54.5z M27.5,2.5
			c-13.8,0-25,11.2-25,25s11.2,25,25,25s25-11.2,25-25S41.3,2.5,27.5,2.5z"/>
	</g>
	<circle class="st1" cx="28.3" cy="27.7" r="22"/>
	<polygon class="st4" points="10.1,45.8 8,43.6 43.7,8.2 45.8,10.3 	"/>
	<g class="st2">
		<path class="st6" d="M27.5,22.3c-1.9,0-3.3,1.4-3.3,3.3c0,1,0.4,1.8,1,2.4l0.4-0.4l0.7-0.7c-0.4-0.3-0.6-0.8-0.6-1.4
			c0-1,0.8-1.8,1.8-1.8c0.6,0,1,0.2,1.4,0.6l0.7-0.7l0.4-0.4C29.4,22.7,28.5,22.3,27.5,22.3z"/>
		<polygon class="st3" points="27.8,31.8 22.7,36.9 29.9,36.9 29.9,42 40,31.8 29.9,31.8 		"/>
		<polygon class="st3" points="19.9,31.8 19.9,33.4 21.5,31.8 		"/>
		<path class="st3" d="M34.4,18.9C30,15.9,22.5,16.4,19,20.4l1.5,2.1l2.7-1.5c0.6-0.3,0.6-1.5,0.6-1.5c1.5-0.9,5.8-0.9,7.3,0
			c0,0,0,1.2,0.6,1.5l0.4,0.2l0.3-0.3L34.4,18.9z"/>
		<path class="st3" d="M27.5,23.8c-1,0-1.8,0.8-1.8,1.8c0,0.6,0.2,1,0.6,1.4l1-1l0.5-0.5l1-1C28.5,24.1,28.1,23.8,27.5,23.8z"/>
		<path class="st3" d="M25.2,28.1c-0.6-0.6-1-1.5-1-2.4c0-1.9,1.4-3.3,3.3-3.3c1,0,1.8,0.4,2.4,1l1.4-1.4c-2.8-2.1-6-1.8-8.6,0.8
			l-2.2,2.2c-0.3,0.3-0.3,0.3-0.3,0.7l0,4.1c0,0.3,0,0.3,0.3,0.3h2.6l1.2-1.2L25.2,28.1z"/>
		<path class="st3" d="M29.4,30.2h5.7c0.3,0,0.3,0,0.3-0.3l0-4.1c0-0.4,0-0.4-0.3-0.7l-0.3-0.3L29.4,30.2z"/>
	</g>
</g>
<g class="st0">
	<g class="st2">
		<circle class="st7" cx="27.5" cy="27.5" r="26"/>
		<path class="st3" d="M27.5,54.5c-14.9,0-27-12.1-27-27s12.1-27,27-27s27,12.1,27,27S42.4,54.5,27.5,54.5z M27.5,2.5
			c-13.8,0-25,11.2-25,25s11.2,25,25,25s25-11.2,25-25S41.3,2.5,27.5,2.5z"/>
	</g>
	<g class="st2">
		<circle class="st7" cx="27.5" cy="27.5" r="22"/>
	</g>
	<g class="st2">
		<path class="st3" d="M35.2,20.4c-1.4-3.2-4.7-5.4-8.4-5.4c-4.8,0-8.7,3.6-9.1,8.1c-2.4,0.3-4.2,2.3-4.2,4.7c0,2.6,2.2,4.8,4.9,4.8
			h2.3v-1.5h-2.3c-1.9,0-3.5-1.5-3.5-3.3c0-1.8,1.5-3.3,3.5-3.3c0.4,0,0.7-0.3,0.7-0.7c0-4,3.4-7.3,7.6-7.3c3.2,0,6.1,2,7.2,4.9
			c0.1,0.3,0.4,0.5,0.8,0.5l0.2,0c0.1,0,0.1,0,0.2,0c2.7,0,4.8,2.1,4.8,4.6c0,2.6-2.2,4.6-4.8,4.6h-2.9v1.5h2.9
			c3.5,0,6.3-2.7,6.3-6.1C41.5,23.1,38.7,20.4,35.2,20.4z"/>
		<g>
			<path class="st3" d="M20.9,39.9c0.8,0.3,4.4,0.6,8.2-6.1c4-7,1.8-10.1,1-10.6l-2.6,4.7c0.6,0.4,0.4,1.1-0.3,2.7
				c-0.4,1-1.1,2.2-1.8,3.4c-0.6,0.8-1.2,1.5-1.8,1.1L20.9,39.9L20.9,39.9z"/>
			<path class="st3" d="M28.4,22.3c-0.3-0.2-0.7,0-0.8,0.2l0,0c0,0-2,3.6-2,3.6c-0.2,0.3-0.1,0.6,0.2,0.8l1.3,0.7l2.6-4.7
				C29.7,23,28.4,22.3,28.4,22.3L28.4,22.3L28.4,22.3z"/>
			<path class="st3" d="M21.8,34.2c-0.3-0.2-0.7,0-0.8,0.2l0,0c0,0-2.1,3.7-2.1,3.7c-0.2,0.3-0.1,0.6,0.2,0.8l1.3,0.7l2.6-4.8
				C23.2,34.9,21.9,34.2,21.8,34.2L21.8,34.2L21.8,34.2z"/>
		</g>
	</g>
</g>
<g class="st0">
	<g class="st2">
		<g>
			<circle class="st7" cx="27.5" cy="27.5" r="22"/>
		</g>
	</g>
	<g class="st2">
		<path class="st3" d="M35.2,20.4c-1.4-3.2-4.7-5.4-8.4-5.4c-4.8,0-8.7,3.6-9.1,8.1c-2.4,0.3-4.2,2.3-4.2,4.7c0,2.6,2.2,4.8,4.9,4.8
			h2.3v-1.5h-2.3c-1.9,0-3.5-1.5-3.5-3.3c0-1.8,1.5-3.3,3.5-3.3c0.4,0,0.7-0.3,0.7-0.7c0-4,3.4-7.3,7.6-7.3c3.2,0,6.1,2,7.2,4.9
			c0.1,0.3,0.4,0.5,0.8,0.5l0.2,0c0.1,0,0.1,0,0.2,0c2.7,0,4.8,2.1,4.8,4.6c0,2.6-2.2,4.6-4.8,4.6h-2.9v1.5h2.9
			c3.5,0,6.3-2.7,6.3-6.1C41.5,23.1,38.7,20.4,35.2,20.4z"/>
		<g>
			<path class="st3" d="M20.9,39.9c0.8,0.3,4.4,0.6,8.2-6.1c4-7,1.8-10.1,1-10.6l-2.6,4.7c0.6,0.4,0.4,1.1-0.3,2.7
				c-0.4,1-1.1,2.2-1.8,3.4c-0.6,0.8-1.2,1.5-1.8,1.1L20.9,39.9L20.9,39.9z"/>
			<path class="st3" d="M28.4,22.3c-0.3-0.2-0.7,0-0.8,0.2l0,0c0,0-2,3.6-2,3.6c-0.2,0.3-0.1,0.6,0.2,0.8l1.3,0.7l2.6-4.7
				C29.7,23,28.4,22.3,28.4,22.3L28.4,22.3L28.4,22.3z"/>
			<path class="st3" d="M21.8,34.2c-0.3-0.2-0.7,0-0.8,0.2l0,0c0,0-2.1,3.7-2.1,3.7c-0.2,0.3-0.1,0.6,0.2,0.8l1.3,0.7l2.6-4.8
				C23.2,34.9,21.9,34.2,21.8,34.2L21.8,34.2L21.8,34.2z"/>
		</g>
	</g>
</g>
<g class="st0">
	<g class="st2">
		<circle class="st7" cx="27.5" cy="27.5" r="26"/>
		<path class="st3" d="M27.5,54.5c-14.9,0-27-12.1-27-27s12.1-27,27-27s27,12.1,27,27S42.4,54.5,27.5,54.5z M27.5,2.5
			c-13.8,0-25,11.2-25,25s11.2,25,25,25s25-11.2,25-25S41.3,2.5,27.5,2.5z"/>
	</g>
	<g class="st2">
		<circle class="st7" cx="27.5" cy="27.5" r="22"/>
	</g>
	<g class="st2">
		<g>
			<g>
				<g>
					<rect x="22.9" y="33.5" class="st3" width="1.6" height="1.9"/>
				</g>
				<g>
					<rect x="25.8" y="33.5" class="st3" width="1.6" height="1.9"/>
				</g>
				<g>
					<rect x="28.8" y="33.6" class="st3" width="8.4" height="1.6"/>
				</g>
			</g>
		</g>
		<g>
			<path class="st3" d="M15.1,34.5c0.9,0.3,4.5,0.6,8.4-6.2c4.1-7.2,1.8-10.4,1-10.8l-2.6,4.8c0.7,0.4,0.4,1.2-0.3,2.7
				c-0.4,1-1.1,2.3-1.9,3.4c-0.6,0.8-1.2,1.5-1.9,1.2L15.1,34.5L15.1,34.5z"/>
			<path class="st3" d="M22.7,16.6c-0.3-0.2-0.7,0-0.8,0.2l0,0c0,0-2,3.7-2,3.7c-0.2,0.3-0.1,0.7,0.2,0.8l1.4,0.7l2.6-4.8
				C24.1,17.3,22.7,16.6,22.7,16.6L22.7,16.6L22.7,16.6z"/>
			<path class="st3" d="M16,28.7c-0.3-0.2-0.7,0-0.8,0.2l0,0c0,0-2.1,3.8-2.1,3.8c-0.2,0.3-0.1,0.7,0.2,0.8l1.4,0.7l2.7-4.9
				C17.4,29.4,16,28.7,16,28.7L16,28.7L16,28.7z"/>
		</g>
		<g>
			<path class="st3" d="M39.2,30.2H22.8v1.3h16.4c0.8,0,1.5,0.7,1.5,1.5v2.8c0,0.8-0.7,1.5-1.5,1.5h-22c-0.8,0-1.5-0.7-1.5-1.5v-0.1
				h-1.3v0.1c0,1.5,1.3,2.8,2.8,2.8h22c1.5,0,2.8-1.2,2.8-2.8V33C42,31.4,40.7,30.2,39.2,30.2z"/>
		</g>
	</g>
</g>
<g class="st0">
	<g class="st2">
		<g>
			<circle class="st7" cx="27.5" cy="27.5" r="22"/>
		</g>
	</g>
	<g class="st2">
		<g>
			<g>
				<g>
					<rect x="22.9" y="32.5" class="st3" width="1.6" height="1.9"/>
				</g>
				<g>
					<rect x="25.8" y="32.5" class="st3" width="1.6" height="1.9"/>
				</g>
				<g>
					<rect x="28.8" y="32.6" class="st3" width="8.4" height="1.6"/>
				</g>
			</g>
		</g>
		<g>
			<path class="st3" d="M15.1,33.5c0.9,0.3,4.5,0.6,8.4-6.2c4.1-7.2,1.8-10.4,1-10.8l-2.6,4.8c0.7,0.4,0.4,1.2-0.3,2.7
				c-0.4,1-1.1,2.3-1.9,3.4c-0.6,0.8-1.2,1.5-1.9,1.2L15.1,33.5L15.1,33.5z"/>
			<path class="st3" d="M22.7,15.6c-0.3-0.2-0.7,0-0.8,0.2l0,0c0,0-2,3.7-2,3.7c-0.2,0.3-0.1,0.7,0.2,0.8l1.4,0.7l2.6-4.8
				C24.1,16.3,22.7,15.6,22.7,15.6L22.7,15.6L22.7,15.6z"/>
			<path class="st3" d="M16,27.7c-0.3-0.2-0.7,0-0.8,0.2l0,0c0,0-2.1,3.8-2.1,3.8c-0.2,0.3-0.1,0.7,0.2,0.8l1.4,0.7l2.7-4.9
				C17.4,28.4,16,27.7,16,27.7L16,27.7L16,27.7z"/>
		</g>
		<g>
			<path class="st3" d="M39.2,29.2H22.8v1.3h16.4c0.8,0,1.5,0.7,1.5,1.5v2.8c0,0.8-0.7,1.5-1.5,1.5h-22c-0.8,0-1.5-0.7-1.5-1.5v-0.1
				h-1.3v0.1c0,1.5,1.3,2.8,2.8,2.8h22c1.5,0,2.8-1.2,2.8-2.8V32C42,30.4,40.7,29.2,39.2,29.2z"/>
		</g>
	</g>
</g>
<g class="st0">
	<g class="st2">
		<circle class="st7" cx="27.5" cy="27.5" r="26"/>
		<path class="st3" d="M27.5,54.5c-14.9,0-27-12.1-27-27s12.1-27,27-27s27,12.1,27,27S42.4,54.5,27.5,54.5z M27.5,2.5
			c-13.8,0-25,11.2-25,25s11.2,25,25,25s25-11.2,25-25S41.3,2.5,27.5,2.5z"/>
	</g>
	<g class="st2">
		<circle class="st7" cx="27.5" cy="27.5" r="22"/>
	</g>
	<g class="st2">
		<path class="st3" d="M21.5,37.5h12.6c0.3,0,0.3,0,0.3-0.3l0-3.7c0-0.4,0-0.4-0.3-0.7l-2-2c-2.7-2.7-6-2.6-8.7,0l-2,2
			c-0.3,0.3-0.3,0.3-0.3,0.6l0,3.7C21.2,37.5,21.2,37.5,21.5,37.5z M27.8,36.4c-1.7,0-3-1.3-3-3c0-1.7,1.3-3,3-3c1.7,0,3,1.3,3,3
			C30.8,35.1,29.5,36.4,27.8,36.4z M27.8,35c0.9,0,1.6-0.7,1.6-1.6c0-0.9-0.7-1.6-1.6-1.6c-0.9,0-1.6,0.7-1.6,1.6
			C26.1,34.4,26.8,35,27.8,35z M21.5,30.1l2.5-1.4c0.5-0.3,0.5-1.4,0.5-1.4c1.4-0.8,5.2-0.8,6.6,0c0,0,0,1.1,0.5,1.4l2.5,1.4
			l1.4-1.9c-3.6-4.1-11.8-4.1-15.4,0L21.5,30.1z"/>
		<g>
			<path class="st6" d="M32.6,32.7h3.1c2.9,0,5.2-2.2,5.2-5c0-2.7-2.3-5-5.2-5c-0.1,0-0.1,0-0.2,0l-0.2,0c-0.3,0-0.7-0.2-0.8-0.5
				c-1.1-3.2-4.2-5.3-7.7-5.3c-4.5,0-8.2,3.5-8.2,7.8c0,0.4-0.4,0.8-0.8,0.8c-2,0-3.7,1.6-3.7,3.5c0,1.9,1.7,3.5,3.7,3.5h1.1h1.3
				H32.6z"/>
			<path class="st3" d="M42.5,27.8c0-3.6-3-6.5-6.8-6.5c-1.5-3.5-5.1-5.7-9-5.7c-5.1,0-9.3,3.8-9.7,8.7c-2.6,0.4-4.5,2.5-4.5,5
				c0,2.8,2.4,5.1,5.3,5.1h1.1v-1.6h-1.1c-2,0-3.7-1.6-3.7-3.5c0-1.9,1.7-3.5,3.7-3.5c0.4,0,0.8-0.4,0.8-0.8c0-4.3,3.7-7.8,8.2-7.8
				c3.5,0,6.6,2.1,7.7,5.3c0.1,0.3,0.5,0.5,0.8,0.5l0.2,0c0.1,0,0.1,0,0.2,0c2.9,0,5.2,2.2,5.2,5c0,2.7-2.3,5-5.2,5h0.4v1.6
				C39.7,34.1,42.5,31.2,42.5,27.8z"/>
		</g>
	</g>
</g>
<g class="st0">
	<g class="st2">
		<g>
			<circle class="st7" cx="27.5" cy="27.5" r="22"/>
		</g>
	</g>
	<g class="st2">
		<path class="st3" d="M21.5,37.5h12.6c0.3,0,0.3,0,0.3-0.3l0-3.7c0-0.4,0-0.4-0.3-0.7l-2-2c-2.7-2.7-6-2.6-8.7,0l-2,2
			c-0.3,0.3-0.3,0.3-0.3,0.6l0,3.7C21.2,37.5,21.2,37.5,21.5,37.5z M27.8,36.4c-1.7,0-3-1.3-3-3c0-1.7,1.3-3,3-3c1.7,0,3,1.3,3,3
			C30.8,35.1,29.5,36.4,27.8,36.4z M27.8,35c0.9,0,1.6-0.7,1.6-1.6c0-0.9-0.7-1.6-1.6-1.6c-0.9,0-1.6,0.7-1.6,1.6
			C26.1,34.4,26.8,35,27.8,35z M21.5,30.1l2.5-1.4c0.5-0.3,0.5-1.4,0.5-1.4c1.4-0.8,5.2-0.8,6.6,0c0,0,0,1.1,0.5,1.4l2.5,1.4
			l1.4-1.9c-3.6-4.1-11.8-4.1-15.4,0L21.5,30.1z"/>
		<g>
			<path class="st6" d="M32.6,32.7h3.1c2.9,0,5.2-2.2,5.2-5c0-2.7-2.3-5-5.2-5c-0.1,0-0.1,0-0.2,0l-0.2,0c-0.3,0-0.7-0.2-0.8-0.5
				c-1.1-3.2-4.2-5.3-7.7-5.3c-4.5,0-8.2,3.5-8.2,7.8c0,0.4-0.4,0.8-0.8,0.8c-2,0-3.7,1.6-3.7,3.5c0,1.9,1.7,3.5,3.7,3.5h1.1h1.3
				H32.6z"/>
			<path class="st3" d="M42.5,27.8c0-3.6-3-6.5-6.8-6.5c-1.5-3.5-5.1-5.7-9-5.7c-5.1,0-9.3,3.8-9.7,8.7c-2.6,0.4-4.5,2.5-4.5,5
				c0,2.8,2.4,5.1,5.3,5.1h1.1v-1.6h-1.1c-2,0-3.7-1.6-3.7-3.5c0-1.9,1.7-3.5,3.7-3.5c0.4,0,0.8-0.4,0.8-0.8c0-4.3,3.7-7.8,8.2-7.8
				c3.5,0,6.6,2.1,7.7,5.3c0.1,0.3,0.5,0.5,0.8,0.5l0.2,0c0.1,0,0.1,0,0.2,0c2.9,0,5.2,2.2,5.2,5c0,2.7-2.3,5-5.2,5h0.4v1.6
				C39.7,34.1,42.5,31.2,42.5,27.8z"/>
		</g>
	</g>
</g>
<g class="st0">
	<g class="st2">
		<circle class="st7" cx="27.5" cy="27.5" r="26"/>
		<path class="st3" d="M27.5,54.5c-14.9,0-27-12.1-27-27s12.1-27,27-27s27,12.1,27,27S42.4,54.5,27.5,54.5z M27.5,2.5
			c-13.8,0-25,11.2-25,25s11.2,25,25,25s25-11.2,25-25S41.3,2.5,27.5,2.5z"/>
	</g>
	<g class="st2">
		<circle class="st7" cx="27.5" cy="27.5" r="22"/>
	</g>
	<g class="st2">
		<g>
			<path class="st3" d="M18.3,34c0.9,0.4,4.6,0.6,8.5-6.4c4.1-7.3,1.8-10.6,1-11.1l-2.7,4.9c0.7,0.4,0.4,1.2-0.3,2.8
				c-0.5,1.1-1.1,2.3-1.9,3.5c-0.6,0.8-1.2,1.6-1.9,1.2L18.3,34L18.3,34z"/>
			<path class="st3" d="M26.1,15.6c-0.3-0.2-0.7,0-0.8,0.3l0,0c0,0-2.1,3.8-2.1,3.8c-0.2,0.3-0.1,0.7,0.2,0.8l1.4,0.8l2.7-4.9
				C27.5,16.3,26.1,15.6,26.1,15.6L26.1,15.6L26.1,15.6z"/>
			<path class="st3" d="M19.3,28c-0.3-0.2-0.7,0-0.8,0.2l0,0c0,0-2.1,3.9-2.1,3.9c-0.2,0.3-0.1,0.7,0.2,0.8l1.4,0.8l2.7-5
				C20.7,28.8,19.3,28,19.3,28L19.3,28L19.3,28z"/>
		</g>
		<g>
			<path class="st3" d="M27.8,39.3c0.9,0.4,4.6,0.6,8.5-6.4c4.1-7.3,1.8-10.6,1-11.1l-2.7,4.9c0.7,0.4,0.4,1.2-0.3,2.8
				c-0.5,1.1-1.1,2.3-1.9,3.5c-0.6,0.8-1.2,1.6-1.9,1.2L27.8,39.3L27.8,39.3z"/>
			<path class="st3" d="M35.6,20.9c-0.3-0.2-0.7,0-0.8,0.3l0,0c0,0-2.1,3.8-2.1,3.8c-0.2,0.3-0.1,0.7,0.2,0.8l1.4,0.8l2.7-4.9
				C37,21.7,35.6,20.9,35.6,20.9L35.6,20.9L35.6,20.9z"/>
			<path class="st3" d="M28.8,33.4c-0.3-0.2-0.7,0-0.8,0.2l0,0c0,0-2.1,3.9-2.1,3.9c-0.2,0.3-0.1,0.7,0.2,0.8l1.4,0.8l2.7-5
				C30.2,34.1,28.8,33.4,28.8,33.4L28.8,33.4L28.8,33.4z"/>
		</g>
	</g>
</g>
<g class="st0">
	<g class="st2">
		<g>
			<circle class="st7" cx="27.5" cy="27.5" r="22"/>
		</g>
	</g>
	<g class="st2">
		<g>
			<path class="st3" d="M18.3,34c0.9,0.4,4.6,0.6,8.5-6.4c4.1-7.3,1.8-10.6,1-11.1l-2.7,4.9c0.7,0.4,0.4,1.2-0.3,2.8
				c-0.5,1.1-1.1,2.3-1.9,3.5c-0.6,0.8-1.2,1.6-1.9,1.2L18.3,34L18.3,34z"/>
			<path class="st3" d="M26.1,15.6c-0.3-0.2-0.7,0-0.8,0.3l0,0c0,0-2.1,3.8-2.1,3.8c-0.2,0.3-0.1,0.7,0.2,0.8l1.4,0.8l2.7-4.9
				C27.5,16.3,26.1,15.6,26.1,15.6L26.1,15.6L26.1,15.6z"/>
			<path class="st3" d="M19.3,28c-0.3-0.2-0.7,0-0.8,0.2l0,0c0,0-2.1,3.9-2.1,3.9c-0.2,0.3-0.1,0.7,0.2,0.8l1.4,0.8l2.7-5
				C20.7,28.8,19.3,28,19.3,28L19.3,28L19.3,28z"/>
		</g>
		<g>
			<path class="st3" d="M27.8,39.3c0.9,0.4,4.6,0.6,8.5-6.4c4.1-7.3,1.8-10.6,1-11.1l-2.7,4.9c0.7,0.4,0.4,1.2-0.3,2.8
				c-0.5,1.1-1.1,2.3-1.9,3.5c-0.6,0.8-1.2,1.6-1.9,1.2L27.8,39.3L27.8,39.3z"/>
			<path class="st3" d="M35.6,20.9c-0.3-0.2-0.7,0-0.8,0.3l0,0c0,0-2.1,3.8-2.1,3.8c-0.2,0.3-0.1,0.7,0.2,0.8l1.4,0.8l2.7-4.9
				C37,21.7,35.6,20.9,35.6,20.9L35.6,20.9L35.6,20.9z"/>
			<path class="st3" d="M28.8,33.4c-0.3-0.2-0.7,0-0.8,0.2l0,0c0,0-2.1,3.9-2.1,3.9c-0.2,0.3-0.1,0.7,0.2,0.8l1.4,0.8l2.7-5
				C30.2,34.1,28.8,33.4,28.8,33.4L28.8,33.4L28.8,33.4z"/>
		</g>
	</g>
</g>
<g class="st0">
	<circle class="st8" cx="27.5" cy="27.5" r="22"/>
	<g class="st2">
		<polygon class="st3" points="36.6,28.5 26,28.5 15.5,28.5 15.5,34.2 26,34.2 26,40 		"/>
		<polygon class="st3" points="39.5,20.8 29,20.8 29,15 18.4,26.5 29,26.5 39.5,26.5 		"/>
	</g>
</g>
<g class="st0">
	<circle class="st8" cx="27.5" cy="27.5" r="22"/>
	<g class="st2">
		<polygon class="st3" points="12.9,28.8 12.9,34.5 17.6,34.5 23.4,28.8 		"/>
		<polygon class="st3" points="27.3,34.5 27.3,40.3 38.9,28.8 29.9,28.8 24.1,34.5 		"/>
		<polygon class="st3" points="27.7,21.1 27.7,15.3 16.1,26.9 25.3,26.9 31.1,21.1 		"/>
		<polygon class="st3" points="31.8,26.9 42.1,26.9 42.1,21.1 37.5,21.1 		"/>
	</g>
	<rect x="4.5" y="24.9" transform="matrix(0.7118 -0.7024 0.7024 0.7118 -10.9446 26.1927)" class="st4" width="43.9" height="3"/>
</g>
<g class="st0">
	<g class="st2">
		<circle class="st9" cx="27.5" cy="27.5" r="26"/>
		<path class="st3" d="M27.5,54.5c-14.9,0-27-12.1-27-27s12.1-27,27-27s27,12.1,27,27S42.4,54.5,27.5,54.5z M27.5,2.5
			c-13.8,0-25,11.2-25,25s11.2,25,25,25s25-11.2,25-25S41.3,2.5,27.5,2.5z"/>
	</g>
	<g class="st2">
		<circle class="st9" cx="27.5" cy="27.5" r="22"/>
		<g>
			<polygon class="st3" points="36.6,28.5 26,28.5 15.5,28.5 15.5,34.2 26,34.2 26,40 			"/>
			<polygon class="st3" points="39.5,20.8 29,20.8 29,15 18.4,26.5 29,26.5 39.5,26.5 			"/>
		</g>
	</g>
</g>
<g class="st0">
	<g class="st2">
		<circle class="st9" cx="27.5" cy="27.5" r="26"/>
		<path class="st3" d="M27.5,54.5c-14.9,0-27-12.1-27-27s12.1-27,27-27s27,12.1,27,27S42.4,54.5,27.5,54.5z M27.5,2.5
			c-13.8,0-25,11.2-25,25s11.2,25,25,25s25-11.2,25-25S41.3,2.5,27.5,2.5z"/>
	</g>
	<g class="st2">
		<circle class="st9" cx="27.5" cy="27.5" r="22"/>
		<g>
			<polygon class="st3" points="12.9,28.8 12.9,34.5 17.6,34.5 23.4,28.8 			"/>
			<polygon class="st3" points="27.3,34.5 27.3,40.3 38.9,28.8 29.9,28.8 24.1,34.5 			"/>
			<polygon class="st3" points="27.7,21.1 27.7,15.3 16.1,26.9 25.3,26.9 31.1,21.1 			"/>
			<polygon class="st3" points="31.8,26.9 42.1,26.9 42.1,21.1 37.5,21.1 			"/>
		</g>
		<polygon class="st3" points="9.6,45.2 7.7,42.9 43.1,7.8 45.4,9.7 		"/>
	</g>
</g>
<g class="st0">
	<circle class="st10" cx="27.5" cy="27.5" r="22"/>
	<g class="st2">
		<polygon class="st3" points="36.6,28.5 26,28.5 15.5,28.5 15.5,34.2 26,34.2 26,40 		"/>
		<polygon class="st3" points="39.5,20.8 29,20.8 29,15 18.4,26.5 29,26.5 39.5,26.5 		"/>
	</g>
</g>
<g class="st0">
	<circle class="st10" cx="27.5" cy="27.5" r="22"/>
	<g class="st2">
		<polygon class="st3" points="12.9,28.8 12.9,34.5 17.6,34.5 23.4,28.8 		"/>
		<polygon class="st3" points="27.3,34.5 27.3,40.3 38.9,28.8 29.9,28.8 24.1,34.5 		"/>
		<polygon class="st3" points="27.7,21.1 27.7,15.3 16.1,26.9 25.3,26.9 31.1,21.1 		"/>
		<polygon class="st3" points="31.8,26.9 42.1,26.9 42.1,21.1 37.5,21.1 		"/>
	</g>
	<rect x="4.5" y="24.9" transform="matrix(0.7118 -0.7024 0.7024 0.7118 -10.9446 26.1927)" class="st4" width="43.9" height="3"/>
</g>
<g class="st0">
	<g class="st2">
		<circle class="st11" cx="27.5" cy="27.5" r="26"/>
		<path class="st3" d="M27.5,54.5c-14.9,0-27-12.1-27-27s12.1-27,27-27s27,12.1,27,27S42.4,54.5,27.5,54.5z M27.5,2.5
			c-13.8,0-25,11.2-25,25s11.2,25,25,25s25-11.2,25-25S41.3,2.5,27.5,2.5z"/>
	</g>
	<g class="st2">
		<circle class="st11" cx="27.5" cy="27.5" r="22"/>
		<g>
			<polygon class="st3" points="36.6,28.5 26,28.5 15.5,28.5 15.5,34.2 26,34.2 26,40 			"/>
			<polygon class="st3" points="39.5,20.8 29,20.8 29,15 18.4,26.5 29,26.5 39.5,26.5 			"/>
		</g>
	</g>
</g>
<g class="st0">
	<g class="st2">
		<circle class="st11" cx="27.5" cy="27.5" r="26"/>
		<path class="st3" d="M27.5,54.5c-14.9,0-27-12.1-27-27s12.1-27,27-27s27,12.1,27,27S42.4,54.5,27.5,54.5z M27.5,2.5
			c-13.8,0-25,11.2-25,25s11.2,25,25,25s25-11.2,25-25S41.3,2.5,27.5,2.5z"/>
	</g>
	<g class="st2">
		<circle class="st11" cx="27.5" cy="27.5" r="22"/>
		<g>
			<polygon class="st3" points="12.9,28.8 12.9,34.5 17.6,34.5 23.4,28.8 			"/>
			<polygon class="st3" points="27.3,34.5 27.3,40.3 38.9,28.8 29.9,28.8 24.1,34.5 			"/>
			<polygon class="st3" points="27.7,21.1 27.7,15.3 16.1,26.9 25.3,26.9 31.1,21.1 			"/>
			<polygon class="st3" points="31.8,26.9 42.1,26.9 42.1,21.1 37.5,21.1 			"/>
		</g>
		<polygon class="st3" points="9.6,45.2 7.7,42.9 43.1,7.8 45.4,9.7 		"/>
	</g>
</g>
<g>
	<g>
		<circle class="st9" cx="27.5" cy="27.5" r="22"/>
	</g>
	<g>
		<g>
			<polygon class="st3" points="40.5,30.9 30,30.9 19.4,30.9 19.4,35.9 30,35.9 30,41 			"/>
		</g>
		<path class="st3" d="M20.1,29.3h14.5c0.3,0,0.3,0,0.3-0.3l0-4.1c0-0.4,0-0.4-0.3-0.7l-2.3-2.2c-3.1-3-6.9-2.9-9.9,0L20,24.1
			c-0.3,0.3-0.3,0.3-0.3,0.7l0,4.1C19.8,29.3,19.8,29.3,20.1,29.3z M27.3,28c-2,0-3.5-1.4-3.5-3.3c0-1.9,1.5-3.3,3.5-3.3
			c2,0,3.5,1.4,3.5,3.3C30.8,26.6,29.3,28,27.3,28z M27.3,26.5c1.1,0,1.9-0.8,1.9-1.8c0-1-0.8-1.8-1.9-1.8c-1.1,0-1.9,0.8-1.9,1.8
			C25.4,25.8,26.2,26.5,27.3,26.5z M20.1,21.5l2.8-1.5c0.6-0.3,0.6-1.5,0.6-1.5c1.6-0.9,6-0.9,7.6,0c0,0,0,1.2,0.6,1.5l2.8,1.5
			l1.6-2.1c-4.1-4.5-13.5-4.5-17.6,0L20.1,21.5z"/>
	</g>
</g>
<g class="st0">
	<circle class="st8" cx="27.5" cy="27.5" r="22"/>
	<rect x="4.5" y="24.9" transform="matrix(0.7118 -0.7024 0.7024 0.7118 -10.9446 26.1927)" class="st4" width="43.9" height="3"/>
	<g class="st2">
		<path class="st6" d="M26.7,22.2c-1.9,0-3.3,1.4-3.3,3.3c0,1,0.4,1.8,1,2.4l0.4-0.4l0.7-0.7c-0.4-0.3-0.6-0.8-0.6-1.4
			c0-1,0.8-1.8,1.8-1.8c0.6,0,1,0.2,1.4,0.6l0.7-0.7l0.4-0.4C28.6,22.5,27.7,22.2,26.7,22.2z"/>
		<polygon class="st3" points="27,31.6 22,36.7 29.1,36.7 29.1,41.8 39.2,31.6 29.1,31.6 		"/>
		<polygon class="st3" points="19.1,31.6 19.1,33.2 20.7,31.6 		"/>
		<path class="st3" d="M33.6,18.8c-4.4-3.1-11.9-2.6-15.4,1.4l1.5,2.1l2.7-1.5c0.6-0.3,0.6-1.5,0.6-1.5c1.5-0.9,5.8-0.9,7.3,0
			c0,0,0,1.2,0.6,1.5l0.4,0.2l0.3-0.3L33.6,18.8z"/>
		<path class="st3" d="M26.7,23.7c-1,0-1.8,0.8-1.8,1.8c0,0.6,0.2,1,0.6,1.4l1-1l0.5-0.5l1-1C27.8,23.9,27.3,23.7,26.7,23.7z"/>
		<path class="st3" d="M24.4,27.9c-0.6-0.6-1-1.5-1-2.4c0-1.9,1.4-3.3,3.3-3.3c1,0,1.8,0.4,2.4,1l1.4-1.4c-2.8-2.1-6-1.8-8.6,0.8
			l-2.2,2.2c-0.3,0.3-0.3,0.3-0.3,0.7l0,4.1c0,0.3,0,0.3,0.3,0.3h2.6l1.2-1.2L24.4,27.9z"/>
		<path class="st3" d="M28.6,30h5.7c0.3,0,0.3,0,0.3-0.3l0-4.1c0-0.4,0-0.4-0.3-0.7L34,24.6L28.6,30z"/>
	</g>
</g>
<g class="st0">
	<g class="st2">
		<circle class="st9" cx="27.5" cy="27.5" r="26"/>
		<path class="st3" d="M27.5,54.5c-14.9,0-27-12.1-27-27s12.1-27,27-27s27,12.1,27,27S42.4,54.5,27.5,54.5z M27.5,2.5
			c-13.8,0-25,11.2-25,25s11.2,25,25,25s25-11.2,25-25S41.3,2.5,27.5,2.5z"/>
	</g>
	<g class="st2">
		<circle class="st9" cx="27.5" cy="27.5" r="22"/>
	</g>
	<g class="st2">
		<g>
			<polygon class="st3" points="40.5,29.7 30,29.7 19.4,29.7 19.4,34.8 30,34.8 30,39.9 			"/>
		</g>
		<path class="st3" d="M20.1,28.1h14.5c0.3,0,0.3,0,0.3-0.3l0-4.1c0-0.4,0-0.4-0.3-0.7l-2.3-2.2c-3.1-3-6.9-2.9-9.9,0L20,23
			c-0.3,0.3-0.3,0.3-0.3,0.7l0,4.1C19.8,28.1,19.8,28.1,20.1,28.1z M27.3,26.9c-2,0-3.5-1.4-3.5-3.3c0-1.9,1.5-3.3,3.5-3.3
			c2,0,3.5,1.4,3.5,3.3C30.8,25.5,29.3,26.9,27.3,26.9z M27.3,25.4c1.1,0,1.9-0.8,1.9-1.8c0-1-0.8-1.8-1.9-1.8
			c-1.1,0-1.9,0.8-1.9,1.8C25.4,24.6,26.2,25.4,27.3,25.4z M20.1,20.4l2.8-1.5c0.6-0.3,0.6-1.5,0.6-1.5c1.6-0.9,6-0.9,7.6,0
			c0,0,0,1.2,0.6,1.5l2.8,1.5l1.6-2.1c-4.1-4.5-13.5-4.5-17.6,0L20.1,20.4z"/>
	</g>
</g>
<g class="st0">
	<g class="st2">
		<circle class="st9" cx="27.5" cy="27.5" r="26"/>
		<path class="st3" d="M27.5,54.5c-14.9,0-27-12.1-27-27s12.1-27,27-27s27,12.1,27,27S42.4,54.5,27.5,54.5z M27.5,2.5
			c-13.8,0-25,11.2-25,25s11.2,25,25,25s25-11.2,25-25S41.3,2.5,27.5,2.5z"/>
	</g>
	<circle class="st8" cx="28.3" cy="27.7" r="22"/>
	<polygon class="st4" points="10.1,45.8 8,43.6 43.7,8.2 45.8,10.3 	"/>
	<g class="st2">
		<path class="st6" d="M27.5,22.3c-1.9,0-3.3,1.4-3.3,3.3c0,1,0.4,1.8,1,2.4l0.4-0.4l0.7-0.7c-0.4-0.3-0.6-0.8-0.6-1.4
			c0-1,0.8-1.8,1.8-1.8c0.6,0,1,0.2,1.4,0.6l0.7-0.7l0.4-0.4C29.4,22.7,28.5,22.3,27.5,22.3z"/>
		<polygon class="st3" points="27.8,31.8 22.7,36.9 29.9,36.9 29.9,42 40,31.8 29.9,31.8 		"/>
		<polygon class="st3" points="19.9,31.8 19.9,33.4 21.5,31.8 		"/>
		<path class="st3" d="M34.4,18.9C30,15.9,22.5,16.4,19,20.4l1.5,2.1l2.7-1.5c0.6-0.3,0.6-1.5,0.6-1.5c1.5-0.9,5.8-0.9,7.3,0
			c0,0,0,1.2,0.6,1.5l0.4,0.2l0.3-0.3L34.4,18.9z"/>
		<path class="st3" d="M27.5,23.8c-1,0-1.8,0.8-1.8,1.8c0,0.6,0.2,1,0.6,1.4l1-1l0.5-0.5l1-1C28.5,24.1,28.1,23.8,27.5,23.8z"/>
		<path class="st3" d="M25.2,28.1c-0.6-0.6-1-1.5-1-2.4c0-1.9,1.4-3.3,3.3-3.3c1,0,1.8,0.4,2.4,1l1.4-1.4c-2.8-2.1-6-1.8-8.6,0.8
			l-2.2,2.2c-0.3,0.3-0.3,0.3-0.3,0.7l0,4.1c0,0.3,0,0.3,0.3,0.3h2.6l1.2-1.2L25.2,28.1z"/>
		<path class="st3" d="M29.4,30.2h5.7c0.3,0,0.3,0,0.3-0.3l0-4.1c0-0.4,0-0.4-0.3-0.7l-0.3-0.3L29.4,30.2z"/>
	</g>
</g>
<g class="st0">
	<g class="st2">
		<circle class="st11" cx="27.5" cy="27.5" r="22"/>
	</g>
	<g class="st2">
		<g>
			<polygon class="st3" points="40.5,30.9 30,30.9 19.4,30.9 19.4,35.9 30,35.9 30,41 			"/>
		</g>
		<path class="st3" d="M20.1,29.3h14.5c0.3,0,0.3,0,0.3-0.3l0-4.1c0-0.4,0-0.4-0.3-0.7l-2.3-2.2c-3.1-3-6.9-2.9-9.9,0L20,24.1
			c-0.3,0.3-0.3,0.3-0.3,0.7l0,4.1C19.8,29.3,19.8,29.3,20.1,29.3z M27.3,28c-2,0-3.5-1.4-3.5-3.3c0-1.9,1.5-3.3,3.5-3.3
			c2,0,3.5,1.4,3.5,3.3C30.8,26.6,29.3,28,27.3,28z M27.3,26.5c1.1,0,1.9-0.8,1.9-1.8c0-1-0.8-1.8-1.9-1.8c-1.1,0-1.9,0.8-1.9,1.8
			C25.4,25.8,26.2,26.5,27.3,26.5z M20.1,21.5l2.8-1.5c0.6-0.3,0.6-1.5,0.6-1.5c1.6-0.9,6-0.9,7.6,0c0,0,0,1.2,0.6,1.5l2.8,1.5
			l1.6-2.1c-4.1-4.5-13.5-4.5-17.6,0L20.1,21.5z"/>
	</g>
</g>
<g class="st0">
	<circle class="st10" cx="27.5" cy="27.5" r="22"/>
	<rect x="4.5" y="24.9" transform="matrix(0.7118 -0.7024 0.7024 0.7118 -10.9446 26.1927)" class="st4" width="43.9" height="3"/>
	<g class="st2">
		<path class="st6" d="M26.7,22.2c-1.9,0-3.3,1.4-3.3,3.3c0,1,0.4,1.8,1,2.4l0.4-0.4l0.7-0.7c-0.4-0.3-0.6-0.8-0.6-1.4
			c0-1,0.8-1.8,1.8-1.8c0.6,0,1,0.2,1.4,0.6l0.7-0.7l0.4-0.4C28.6,22.5,27.7,22.2,26.7,22.2z"/>
		<polygon class="st3" points="27,31.6 22,36.7 29.1,36.7 29.1,41.8 39.2,31.6 29.1,31.6 		"/>
		<polygon class="st3" points="19.1,31.6 19.1,33.2 20.7,31.6 		"/>
		<path class="st3" d="M33.6,18.8c-4.4-3.1-11.9-2.6-15.4,1.4l1.5,2.1l2.7-1.5c0.6-0.3,0.6-1.5,0.6-1.5c1.5-0.9,5.8-0.9,7.3,0
			c0,0,0,1.2,0.6,1.5l0.4,0.2l0.3-0.3L33.6,18.8z"/>
		<path class="st3" d="M26.7,23.7c-1,0-1.8,0.8-1.8,1.8c0,0.6,0.2,1,0.6,1.4l1-1l0.5-0.5l1-1C27.8,23.9,27.3,23.7,26.7,23.7z"/>
		<path class="st3" d="M24.4,27.9c-0.6-0.6-1-1.5-1-2.4c0-1.9,1.4-3.3,3.3-3.3c1,0,1.8,0.4,2.4,1l1.4-1.4c-2.8-2.1-6-1.8-8.6,0.8
			l-2.2,2.2c-0.3,0.3-0.3,0.3-0.3,0.7l0,4.1c0,0.3,0,0.3,0.3,0.3h2.6l1.2-1.2L24.4,27.9z"/>
		<path class="st3" d="M28.6,30h5.7c0.3,0,0.3,0,0.3-0.3l0-4.1c0-0.4,0-0.4-0.3-0.7L34,24.6L28.6,30z"/>
	</g>
</g>
<g class="st0">
	<g class="st2">
		<circle class="st11" cx="27.5" cy="27.5" r="26"/>
		<path class="st3" d="M27.5,54.5c-14.9,0-27-12.1-27-27s12.1-27,27-27s27,12.1,27,27S42.4,54.5,27.5,54.5z M27.5,2.5
			c-13.8,0-25,11.2-25,25s11.2,25,25,25s25-11.2,25-25S41.3,2.5,27.5,2.5z"/>
	</g>
	<g class="st2">
		<circle class="st11" cx="27.5" cy="27.5" r="22"/>
	</g>
	<g class="st2">
		<g>
			<polygon class="st3" points="40.5,29.7 30,29.7 19.4,29.7 19.4,34.8 30,34.8 30,39.9 			"/>
		</g>
		<path class="st3" d="M20.1,28.1h14.5c0.3,0,0.3,0,0.3-0.3l0-4.1c0-0.4,0-0.4-0.3-0.7l-2.3-2.2c-3.1-3-6.9-2.9-9.9,0L20,23
			c-0.3,0.3-0.3,0.3-0.3,0.7l0,4.1C19.8,28.1,19.8,28.1,20.1,28.1z M27.3,26.9c-2,0-3.5-1.4-3.5-3.3c0-1.9,1.5-3.3,3.5-3.3
			c2,0,3.5,1.4,3.5,3.3C30.8,25.5,29.3,26.9,27.3,26.9z M27.3,25.4c1.1,0,1.9-0.8,1.9-1.8c0-1-0.8-1.8-1.9-1.8
			c-1.1,0-1.9,0.8-1.9,1.8C25.4,24.6,26.2,25.4,27.3,25.4z M20.1,20.4l2.8-1.5c0.6-0.3,0.6-1.5,0.6-1.5c1.6-0.9,6-0.9,7.6,0
			c0,0,0,1.2,0.6,1.5l2.8,1.5l1.6-2.1c-4.1-4.5-13.5-4.5-17.6,0L20.1,20.4z"/>
	</g>
</g>
<g class="st0">
	<g class="st2">
		<circle class="st11" cx="27.5" cy="27.5" r="26"/>
		<path class="st3" d="M27.5,54.5c-14.9,0-27-12.1-27-27s12.1-27,27-27s27,12.1,27,27S42.4,54.5,27.5,54.5z M27.5,2.5
			c-13.8,0-25,11.2-25,25s11.2,25,25,25s25-11.2,25-25S41.3,2.5,27.5,2.5z"/>
	</g>
	<circle class="st10" cx="28.3" cy="27.7" r="22"/>
	<polygon class="st4" points="10.1,45.8 8,43.6 43.7,8.2 45.8,10.3 	"/>
	<g class="st2">
		<path class="st6" d="M27.5,22.3c-1.9,0-3.3,1.4-3.3,3.3c0,1,0.4,1.8,1,2.4l0.4-0.4l0.7-0.7c-0.4-0.3-0.6-0.8-0.6-1.4
			c0-1,0.8-1.8,1.8-1.8c0.6,0,1,0.2,1.4,0.6l0.7-0.7l0.4-0.4C29.4,22.7,28.5,22.3,27.5,22.3z"/>
		<polygon class="st3" points="27.8,31.8 22.7,36.9 29.9,36.9 29.9,42 40,31.8 29.9,31.8 		"/>
		<polygon class="st3" points="19.9,31.8 19.9,33.4 21.5,31.8 		"/>
		<path class="st3" d="M34.4,18.9C30,15.9,22.5,16.4,19,20.4l1.5,2.1l2.7-1.5c0.6-0.3,0.6-1.5,0.6-1.5c1.5-0.9,5.8-0.9,7.3,0
			c0,0,0,1.2,0.6,1.5l0.4,0.2l0.3-0.3L34.4,18.9z"/>
		<path class="st3" d="M27.5,23.8c-1,0-1.8,0.8-1.8,1.8c0,0.6,0.2,1,0.6,1.4l1-1l0.5-0.5l1-1C28.5,24.1,28.1,23.8,27.5,23.8z"/>
		<path class="st3" d="M25.2,28.1c-0.6-0.6-1-1.5-1-2.4c0-1.9,1.4-3.3,3.3-3.3c1,0,1.8,0.4,2.4,1l1.4-1.4c-2.8-2.1-6-1.8-8.6,0.8
			l-2.2,2.2c-0.3,0.3-0.3,0.3-0.3,0.7l0,4.1c0,0.3,0,0.3,0.3,0.3h2.6l1.2-1.2L25.2,28.1z"/>
		<path class="st3" d="M29.4,30.2h5.7c0.3,0,0.3,0,0.3-0.3l0-4.1c0-0.4,0-0.4-0.3-0.7l-0.3-0.3L29.4,30.2z"/>
	</g>
</g>
</svg>
