<?xml version="1.0" encoding="utf-8"?>
<!-- Generator: Adobe Illustrator 20.0.0, SVG Export Plug-In . SVG Version: 6.00 Build 0)  -->
<svg version="1.1" id="Layer_1" xmlns="http://www.w3.org/2000/svg" xmlns:xlink="http://www.w3.org/1999/xlink" x="0px" y="0px"
	 viewBox="0 0 55 55" style="enable-background:new 0 0 55 55;" xml:space="preserve">
<style type="text/css">
	.st3{fill:#FFFFFF;}
	.circle{fill:#34B3E7;}
	.gw-normal{display:inline;}
	.gw-locked{display:none;}
</style>

<g>
	<g>
		<circle class="circle" cx="27.5" cy="27.5" r="22"/>
	</g>
	<!--gw noraml-->
	<g class="gw-normal">
		<g>
			<polygon class="st3" points="40.5,30.9 30,30.9 19.4,30.9 19.4,35.9 30,35.9 30,41 			"/>
		</g>
		<path class="st3" d="M20.1,29.3h14.5c0.3,0,0.3,0,0.3-0.3l0-4.1c0-0.4,0-0.4-0.3-0.7l-2.3-2.2c-3.1-3-6.9-2.9-9.9,0L20,24.1
			c-0.3,0.3-0.3,0.3-0.3,0.7l0,4.1C19.8,29.3,19.8,29.3,20.1,29.3z M27.3,28c-2,0-3.5-1.4-3.5-3.3c0-1.9,1.5-3.3,3.5-3.3
			c2,0,3.5,1.4,3.5,3.3C30.8,26.6,29.3,28,27.3,28z M27.3,26.5c1.1,0,1.9-0.8,1.9-1.8c0-1-0.8-1.8-1.9-1.8c-1.1,0-1.9,0.8-1.9,1.8
			C25.4,25.8,26.2,26.5,27.3,26.5z M20.1,21.5l2.8-1.5c0.6-0.3,0.6-1.5,0.6-1.5c1.6-0.9,6-0.9,7.6,0c0,0,0,1.2,0.6,1.5l2.8,1.5
			l1.6-2.1c-4.1-4.5-13.5-4.5-17.6,0L20.1,21.5z"/>
	</g>
	<!--gw locked-->
	<g class="gw-locked">
		<rect x="4.5" y="24.9" transform="matrix(0.7118 -0.7024 0.7024 0.7118 -10.9446 26.1927)" class="st3" width="43.9" height="3"/>
		<g>
			<path class="st6" d="M26.7,22.2c-1.9,0-3.3,1.4-3.3,3.3c0,1,0.4,1.8,1,2.4l0.4-0.4l0.7-0.7c-0.4-0.3-0.6-0.8-0.6-1.4
				c0-1,0.8-1.8,1.8-1.8c0.6,0,1,0.2,1.4,0.6l0.7-0.7l0.4-0.4C28.6,22.5,27.7,22.2,26.7,22.2z"/>
			<polygon class="st3" points="27,31.6 22,36.7 29.1,36.7 29.1,41.8 39.2,31.6 29.1,31.6 		"/>
			<polygon class="st3" points="19.1,31.6 19.1,33.2 20.7,31.6 		"/>
			<path class="st3" d="M33.6,18.8c-4.4-3.1-11.9-2.6-15.4,1.4l1.5,2.1l2.7-1.5c0.6-0.3,0.6-1.5,0.6-1.5c1.5-0.9,5.8-0.9,7.3,0
				c0,0,0,1.2,0.6,1.5l0.4,0.2l0.3-0.3L33.6,18.8z"/>
			<path class="st3" d="M26.7,23.7c-1,0-1.8,0.8-1.8,1.8c0,0.6,0.2,1,0.6,1.4l1-1l0.5-0.5l1-1C27.8,23.9,27.3,23.7,26.7,23.7z"/>
			<path class="st3" d="M24.4,27.9c-0.6-0.6-1-1.5-1-2.4c0-1.9,1.4-3.3,3.3-3.3c1,0,1.8,0.4,2.4,1l1.4-1.4c-2.8-2.1-6-1.8-8.6,0.8
				l-2.2,2.2c-0.3,0.3-0.3,0.3-0.3,0.7l0,4.1c0,0.3,0,0.3,0.3,0.3h2.6l1.2-1.2L24.4,27.9z"/>
			<path class="st3" d="M28.6,30h5.7c0.3,0,0.3,0,0.3-0.3l0-4.1c0-0.4,0-0.4-0.3-0.7L34,24.6L28.6,30z"/>
		</g>
	</g>
</g>
</svg>
