<?xml version="1.0" encoding="utf-8"?>
<!-- Generator: Adobe Illustrator 20.0.0, SVG Export Plug-In . SVG Version: 6.00 Build 0)  -->
<svg version="1.1" xmlns="http://www.w3.org/2000/svg" xmlns:xlink="http://www.w3.org/1999/xlink" x="0px" y="0px"
	 viewBox="0 0 55 55" style="enable-background:new 0 0 55 55;" xml:space="preserve">
<style type="text/css">
	.st3{fill:#FFFFFF;}
	.circle{fill:#34B3E7;}
	.hgw-normal{display : inline;}
	.hgw-locked{display : none;}
</style>

		<g>
			<circle class="circle" cx="27.5" cy="27.5" r="22"/>
		</g>
		<!--hgw-normal-->
		<g class="hgw-normal">
			<g>
				<path class="st3" d="M21.4,29.1h14.5c0.3,0,0.3,0,0.3-0.3l0-4.1c0-0.4,0-0.4-0.3-0.7l-2.3-2.2c-3.1-3-6.9-2.9-9.9,0L21.3,24
					C21,24.3,21,24.3,21,24.7l0,4.1C21,29.1,21,29.1,21.4,29.1z M28.6,27.9c-2,0-3.5-1.4-3.5-3.3c0-1.9,1.5-3.3,3.5-3.3
					c2,0,3.5,1.4,3.5,3.3C32.1,26.5,30.6,27.9,28.6,27.9z M28.6,26.4c1.1,0,1.9-0.8,1.9-1.8c0-1-0.8-1.8-1.9-1.8
					c-1.1,0-1.9,0.8-1.9,1.8C26.7,25.6,27.5,26.4,28.6,26.4z M21.4,21.4l2.8-1.5c0.6-0.3,0.6-1.5,0.6-1.5c1.6-0.9,6-0.9,7.6,0
					c0,0,0,1.2,0.6,1.5l2.8,1.5l1.6-2.1c-4.1-4.5-13.5-4.5-17.6,0L21.4,21.4z"/>
			</g>
			<g>
				<g>
					<polygon class="st3" points="41.5,31.1 34.1,31.1 26.6,31.1 26.6,35.2 34.1,35.2 34.1,39.3 				"/>
					<polygon class="st3" points="31.7,37 24.3,37 24.3,32.9 16.8,41.1 24.3,41.1 31.7,41.1 				"/>
				</g>
			</g>
		</g>
		<!--hgw-locked-->
		<g class="hgw-locked">
			<g>
				<rect x="4.5" y="24.9" transform="matrix(0.7118 -0.7024 0.7024 0.7118 -10.9446 26.1927)" class="st3" width="43.9" height="3"/>
			</g>
			<g>
				<g>
					<polygon class="st3" points="42.9,31.7 35.4,31.7 27.9,31.7 27.9,35.7 35.4,35.7 35.4,39.8 				"/>
					<polygon class="st3" points="33.1,37.6 25.6,37.6 25.6,33.5 18.1,41.7 25.6,41.7 33.1,41.7 				"/>
				</g>
			</g>
			<path class="st3" d="M33.1,19.2c-4.4-3.1-11.9-2.6-15.4,1.4l1.5,2.1l2.7-1.5c0.6-0.3,0.6-1.5,0.6-1.5c1.5-0.9,5.8-0.9,7.3,0
				c0,0,0,1.2,0.6,1.5l0.4,0.2l0.3-0.3L33.1,19.2z"/>
			<path class="st3" d="M26.2,24.1c-1,0-1.8,0.8-1.8,1.8c0,0.6,0.2,1,0.6,1.4l1-1l0.5-0.5l1-1C27.3,24.3,26.8,24.1,26.2,24.1z"/>
			<path class="st3" d="M23.9,28.4c-0.6-0.6-1-1.5-1-2.4c0-1.9,1.4-3.3,3.3-3.3c1,0,1.8,0.4,2.4,1l1.4-1.4c-2.8-2.1-6-1.8-8.6,0.8
				l-2.2,2.2c-0.3,0.3-0.3,0.3-0.3,0.7l0,4.1c0,0.3,0,0.3,0.3,0.3h2.6l1.2-1.2L23.9,28.4z"/>
			<path class="st3" d="M29.1,29.5h5.7c0.3,0,0.3,0,0.3-0.3l0-4.1c0-0.4,0-0.4-0.3-0.7L34.5,24L29.1,29.5z"/>
	</g>
</svg>
