<?xml version="1.0" encoding="utf-8"?>
<!-- Generator: Adobe Illustrator 20.0.0, SVG Export Plug-In . SVG Version: 6.00 Build 0)  -->
<svg version="1.1" id="Layer_1" xmlns="http://www.w3.org/2000/svg" xmlns:xlink="http://www.w3.org/1999/xlink" x="0px" y="0px"
	 viewBox="0 0 55 55" style="enable-background:new 0 0 55 55;" xml:space="preserve">
<style type="text/css">
	.st3{fill:#FFFFFF;}
	.circle{fill:#525352;}
	.ip{}
</style>
<g>
	<g>
		<g>
			<circle class="circle" cx="27.5" cy="27.5" r="22"/>
		</g>
	</g>
	<g class="ip">
		<g>
			<path class="st3" d="M18.3,34c0.9,0.4,4.6,0.6,8.5-6.4c4.1-7.3,1.8-10.6,1-11.1l-2.7,4.9c0.7,0.4,0.4,1.2-0.3,2.8     c-0.5,1.1-1.1,2.3-1.9,3.5c-0.6,0.8-1.2,1.6-1.9,1.2L18.3,34L18.3,34z"/>
			<path class="st3" d="M26.1,15.6c-0.3-0.2-0.7,0-0.8,0.3l0,0c0,0-2.1,3.8-2.1,3.8c-0.2,0.3-0.1,0.7,0.2,0.8l1.4,0.8l2.7-4.9     C27.5,16.3,26.1,15.6,26.1,15.6L26.1,15.6L26.1,15.6z"/>
			<path class="st3" d="M19.3,28c-0.3-0.2-0.7,0-0.8,0.2l0,0c0,0-2.1,3.9-2.1,3.9c-0.2,0.3-0.1,0.7,0.2,0.8l1.4,0.8l2.7-5     C20.7,28.8,19.3,28,19.3,28L19.3,28L19.3,28z"/>
		</g>
		<g>
			<path class="st3" d="M27.8,39.3c0.9,0.4,4.6,0.6,8.5-6.4c4.1-7.3,1.8-10.6,1-11.1l-2.7,4.9c0.7,0.4,0.4,1.2-0.3,2.8     c-0.5,1.1-1.1,2.3-1.9,3.5c-0.6,0.8-1.2,1.6-1.9,1.2L27.8,39.3L27.8,39.3z"/>
			<path class="st3" d="M35.6,20.9c-0.3-0.2-0.7,0-0.8,0.3l0,0c0,0-2.1,3.8-2.1,3.8c-0.2,0.3-0.1,0.7,0.2,0.8l1.4,0.8l2.7-4.9     C37,21.7,35.6,20.9,35.6,20.9L35.6,20.9L35.6,20.9z"/>
			<path class="st3" d="M28.8,33.4c-0.3-0.2-0.7,0-0.8,0.2l0,0c0,0-2.1,3.9-2.1,3.9c-0.2,0.3-0.1,0.7,0.2,0.8l1.4,0.8l2.7-5     C30.2,34.1,28.8,33.4,28.8,33.4L28.8,33.4L28.8,33.4z"/>
		</g>
	</g>
</g>
</svg>
