<?xml version="1.0" encoding="utf-8"?>
<svg version="1.1" id="Layer_1" xmlns="http://www.w3.org/2000/svg" xmlns:xlink="http://www.w3.org/1999/xlink" x="0px" y="0px"
	 viewBox="0 0 55 55" style="enable-background:new 0 0 55 55;" xml:space="preserve">
<style type="text/css">
	.st3{fill:#FFFFFF;}
	.circle{fill:#525352;}
	.pbx{}
</style>
<g xmlns="http://www.w3.org/2000/svg">
	<g>
		<circle class="circle" cx="27.5" cy="27.5" r="22"/>
	</g>
	<g class="pbx">
		<g>
			<g>
				<rect x="22.9" y="32.5" class="st3" width="1.6" height="1.9"/>
			</g>
			<g>
				<rect x="25.8" y="32.5" class="st3" width="1.6" height="1.9"/>
			</g>
			<g>
				<rect x="28.8" y="32.6" class="st3" width="8.4" height="1.6"/>
			</g>
		</g>
		<g>
			<path class="st3" d="M15.1,33.5c0.9,0.3,4.5,0.6,8.4-6.2c4.1-7.2,1.8-10.4,1-10.8l-2.6,4.8c0.7,0.4,0.4,1.2-0.3,2.7     c-0.4,1-1.1,2.3-1.9,3.4c-0.6,0.8-1.2,1.5-1.9,1.2L15.1,33.5L15.1,33.5z"/>
			<path class="st3" d="M22.7,15.6c-0.3-0.2-0.7,0-0.8,0.2l0,0c0,0-2,3.7-2,3.7c-0.2,0.3-0.1,0.7,0.2,0.8l1.4,0.7l2.6-4.8     C24.1,16.3,22.7,15.6,22.7,15.6L22.7,15.6L22.7,15.6z"/>
			<path class="st3" d="M16,27.7c-0.3-0.2-0.7,0-0.8,0.2l0,0c0,0-2.1,3.8-2.1,3.8c-0.2,0.3-0.1,0.7,0.2,0.8l1.4,0.7l2.7-4.9     C17.4,28.4,16,27.7,16,27.7L16,27.7L16,27.7z"/>
		</g>
		<g>
			<path class="st3" d="M39.2,29.2H22.8v1.3h16.4c0.8,0,1.5,0.7,1.5,1.5v2.8c0,0.8-0.7,1.5-1.5,1.5h-22c-0.8,0-1.5-0.7-1.5-1.5v-0.1     h-1.3v0.1c0,1.5,1.3,2.8,2.8,2.8h22c1.5,0,2.8-1.2,2.8-2.8V32C42,30.4,40.7,29.2,39.2,29.2z"/>
		</g>
	</g>
</g>
</svg>
