<?xml version="1.0" encoding="utf-8"?>
<!-- Generator: Adobe Illustrator 20.0.0, SVG Export Plug-In . SVG Version: 6.00 Build 0)  -->
<svg version="1.1" id="Layer_1" xmlns="http://www.w3.org/2000/svg" xmlns:xlink="http://www.w3.org/1999/xlink" x="0px" y="0px"
	 viewBox="0 0 55 55" style="enable-background:new 0 0 55 55;" xml:space="preserve">
<style type="text/css">
	.st3{fill:#FFFFFF;}
	.st6{fill:none;}
	.circle{fill:#525352;}
	.pstn{}
</style>
<g class="pstn">
	<g>
		<g>
			<circle class="circle" cx="27.5" cy="27.5" r="22"/>
		</g>
	</g>
	<g>
		<path class="st3" d="M21.5,37.5h12.6c0.3,0,0.3,0,0.3-0.3l0-3.7c0-0.4,0-0.4-0.3-0.7l-2-2c-2.7-2.7-6-2.6-8.7,0l-2,2    c-0.3,0.3-0.3,0.3-0.3,0.6l0,3.7C21.2,37.5,21.2,37.5,21.5,37.5z M27.8,36.4c-1.7,0-3-1.3-3-3c0-1.7,1.3-3,3-3c1.7,0,3,1.3,3,3    C30.8,35.1,29.5,36.4,27.8,36.4z M27.8,35c0.9,0,1.6-0.7,1.6-1.6c0-0.9-0.7-1.6-1.6-1.6c-0.9,0-1.6,0.7-1.6,1.6    C26.1,34.4,26.8,35,27.8,35z M21.5,30.1l2.5-1.4c0.5-0.3,0.5-1.4,0.5-1.4c1.4-0.8,5.2-0.8,6.6,0c0,0,0,1.1,0.5,1.4l2.5,1.4    l1.4-1.9c-3.6-4.1-11.8-4.1-15.4,0L21.5,30.1z"/>
		<g>
			<path class="st6" d="M32.6,32.7h3.1c2.9,0,5.2-2.2,5.2-5c0-2.7-2.3-5-5.2-5c-0.1,0-0.1,0-0.2,0l-0.2,0c-0.3,0-0.7-0.2-0.8-0.5     c-1.1-3.2-4.2-5.3-7.7-5.3c-4.5,0-8.2,3.5-8.2,7.8c0,0.4-0.4,0.8-0.8,0.8c-2,0-3.7,1.6-3.7,3.5c0,1.9,1.7,3.5,3.7,3.5h1.1h1.3     H32.6z"/>
			<path class="st3" d="M42.5,27.8c0-3.6-3-6.5-6.8-6.5c-1.5-3.5-5.1-5.7-9-5.7c-5.1,0-9.3,3.8-9.7,8.7c-2.6,0.4-4.5,2.5-4.5,5     c0,2.8,2.4,5.1,5.3,5.1h1.1v-1.6h-1.1c-2,0-3.7-1.6-3.7-3.5c0-1.9,1.7-3.5,3.7-3.5c0.4,0,0.8-0.4,0.8-0.8c0-4.3,3.7-7.8,8.2-7.8     c3.5,0,6.6,2.1,7.7,5.3c0.1,0.3,0.5,0.5,0.8,0.5l0.2,0c0.1,0,0.1,0,0.2,0c2.9,0,5.2,2.2,5.2,5c0,2.7-2.3,5-5.2,5h0.4v1.6     C39.7,34.1,42.5,31.2,42.5,27.8z"/>
		</g>
	</g>
</g>
</svg>
