<?xml version="1.0" encoding="utf-8"?>
<!-- Generator: Adobe Illustrator 20.0.0, SVG Export Plug-In . SVG Version: 6.00 Build 0)  -->
<svg version="1.1" id="Layer_1" xmlns="http://www.w3.org/2000/svg" xmlns:xlink="http://www.w3.org/1999/xlink" x="0px" y="0px"
	 viewBox="0 0 55 55" style="enable-background:new 0 0 55 55;" xml:space="preserve">
<style type="text/css">
	.st3{fill:#FFFFFF;}
	.circle{fill:#525352;}
	.sip{}
</style>
<g class="sip">
	<g>
		<g>
			<circle class="circle" cx="27.5" cy="27.5" r="22"/>
		</g>
	</g>
	<g>
		<path class="st3" d="M35.2,20.4c-1.4-3.2-4.7-5.4-8.4-5.4c-4.8,0-8.7,3.6-9.1,8.1c-2.4,0.3-4.2,2.3-4.2,4.7c0,2.6,2.2,4.8,4.9,4.8    h2.3v-1.5h-2.3c-1.9,0-3.5-1.5-3.5-3.3c0-1.8,1.5-3.3,3.5-3.3c0.4,0,0.7-0.3,0.7-0.7c0-4,3.4-7.3,7.6-7.3c3.2,0,6.1,2,7.2,4.9    c0.1,0.3,0.4,0.5,0.8,0.5l0.2,0c0.1,0,0.1,0,0.2,0c2.7,0,4.8,2.1,4.8,4.6c0,2.6-2.2,4.6-4.8,4.6h-2.9v1.5h2.9    c3.5,0,6.3-2.7,6.3-6.1C41.5,23.1,38.7,20.4,35.2,20.4z"/>
		<g>
			<path class="st3" d="M20.9,39.9c0.8,0.3,4.4,0.6,8.2-6.1c4-7,1.8-10.1,1-10.6l-2.6,4.7c0.6,0.4,0.4,1.1-0.3,2.7     c-0.4,1-1.1,2.2-1.8,3.4c-0.6,0.8-1.2,1.5-1.8,1.1L20.9,39.9L20.9,39.9z"/>
			<path class="st3" d="M28.4,22.3c-0.3-0.2-0.7,0-0.8,0.2l0,0c0,0-2,3.6-2,3.6c-0.2,0.3-0.1,0.6,0.2,0.8l1.3,0.7l2.6-4.7     C29.7,23,28.4,22.3,28.4,22.3L28.4,22.3L28.4,22.3z"/>
			<path class="st3" d="M21.8,34.2c-0.3-0.2-0.7,0-0.8,0.2l0,0c0,0-2.1,3.7-2.1,3.7c-0.2,0.3-0.1,0.6,0.2,0.8l1.3,0.7l2.6-4.8     C23.2,34.9,21.9,34.2,21.8,34.2L21.8,34.2L21.8,34.2z"/>
		</g>
	</g>
</g>
</svg>
