<?xml version="1.0" encoding="utf-8"?>
<!-- Generator: Adobe Illustrator 21.0.2, SVG Export Plug-In . SVG Version: 6.00 Build 0)  -->
<svg version="1.1" xmlns="http://www.w3.org/2000/svg" xmlns:xlink="http://www.w3.org/1999/xlink" x="0px" y="0px"
	 viewBox="0 0 55 55" style="enable-background:new 0 0 55 55;" xml:space="preserve">
<style type="text/css">
	.st3{fill:#FFFFFF;}
	.circle{fill:#34B1E6;}
	.site-normal{display:inline;}
	.site-locked{display:none;}
</style>

	<g>
		<circle class="circle" cx="27.3" cy="27.5" r="22"/>
	</g>

	<!--site normal-->
	<g class="site-normal">
		<g>
			<path class="st3" d="M25.6,19.9c0,0,2.6-4.6,2.6-4.6c0.2-0.4,0.7-0.5,1.1-0.3c0,0,2.2,1.2,2.2,1.2l-3.3,6l-2.2-1.2
				C25.6,20.7,25.4,20.3,25.6,19.9z M17.4,36.2c-0.4-0.2-0.5-0.7-0.3-1c0,0,2.7-4.8,2.7-4.8c0.2-0.4,0.6-0.5,1-0.3
				c0,0,2.2,1.2,2.2,1.2l-3.4,6.1L17.4,36.2z M19.6,37.4l3.4-6.1c0.9,0.5,1.7-0.5,2.4-1.5c1-1.4,1.8-3,2.4-4.3c0.8-2,1.2-3,0.3-3.4
				l3.3-6c1,0.5,3.9,4.5-1.2,13.5C25.3,38.1,20.7,37.8,19.6,37.4z M34.4,32.4c-5.5,8.1-7.4,9-11.7,6.5l0,0c2.3-0.5,5.7-2.2,9.2-8.4
				c3.2-5.6,3.3-9.4,2.8-11.8C34.8,18.8,41.4,22,34.4,32.4z"/>
		</g>
	</g>

	<!--site locked-->
	<g class="site-locked">
		<g>
			<g>
				<rect x="5.3" y="25.9" transform="matrix(0.7118 -0.7024 0.7024 0.7118 -11.4114 27.0549)" class="st3" width="43.9" height="3"/>
			</g>
			<g>
				<path class="st3" d="M20.5,28.9c-0.4-0.2-0.9-0.1-1,0.3c0,0-2.7,4.8-2.7,4.8c-0.1,0.2-0.1,0.5,0,0.7l5.1-5
					C21.2,29.3,20.5,28.9,20.5,28.9z"/>
				<g>
					<path class="st3" d="M29.9,12.7c-0.4-0.2-0.9,0-1.1,0.3c0,0-2.6,4.7-2.6,4.7c-0.2,0.4-0.1,0.8,0.3,1l2.2,1.2l3.3-6
						C32.1,13.9,29.9,12.7,29.9,12.7z"/>
					<path class="st3" d="M32.1,13.9l-3.3,6c0.8,0.4,0.5,1.4-0.2,3.2l5.3-5.2C33.7,15.4,32.6,14.1,32.1,13.9z"/>
				</g>
				<path class="st3" d="M31.8,28.4c0.9-1.7,1.6-3.2,2.1-4.5L21.4,36.3C22.7,36.7,27.1,36.7,31.8,28.4z"/>
				<path class="st3" d="M33.6,29.4c-3.5,6.2-7,7.9-9.2,8.4c4.3,2.5,6.2,1.7,11.7-6.5c4.5-6.8,3.4-10.5,2-12.3l-1.4,1.4
					C36.5,22.6,35.7,25.6,33.6,29.4z"/>
			</g>
		</g>
	</g>
</svg>
