<svg id="Layer_9" data-name="Layer 9" xmlns="http://www.w3.org/2000/svg" viewBox="0 0 44 44"><defs><style>.cls-1{fill:#faa21e;}.cls-2{fill:#fff;}</style></defs><title>site_orang</title><circle class="cls-1" cx="22" cy="22" r="22"/><path class="cls-2" d="M25.62,19.85l2.58-4.67a.78.78,0,0,1,1.05-.31l2.17,1.19-3.31,6-2.19-1.17A.75.75,0,0,1,25.62,19.85ZM17.44,36.23a.75.75,0,0,1-.31-1l2.66-4.81a.77.77,0,0,1,1-.3L23,31.27l-3.38,6.15Zm2.19,1.18L23,31.27c.89.48,1.67-.46,2.38-1.47a25.12,25.12,0,0,0,2.38-4.31c.84-2,1.17-3,.33-3.44l3.31-6c1,.54,3.89,4.56-1.23,13.57C25.32,38.18,20.7,37.85,19.63,37.42Zm14.75-5C28.92,40.62,27,41.5,22.72,39h0c2.29-.51,5.71-2.19,9.25-8.41,3.18-5.58,3.26-9.45,2.82-11.88C34.82,18.73,41.36,22,34.38,32.44Z" transform="translate(-5.32 -5.5)"/></svg>