<?xml version="1.0" encoding="utf-8"?>
<!-- Generator: Adobe Illustrator 20.0.0, SVG Export Plug-In . SVG Version: 6.00 Build 0)  -->
<svg version="1.1" id="Layer_1" xmlns="http://www.w3.org/2000/svg" xmlns:xlink="http://www.w3.org/1999/xlink" x="0px" y="0px"
	 viewBox="0 0 16 16" style="enable-background:new 0 0 16 16;" xml:space="preserve">
<style type="text/css">
	.st0{display:none;}
	.st1{display:inline;fill:#525352;}
	.st2{display:inline;fill:#FFFFFF;}
	.st3{display:inline;fill:#FAA21B;}
	.st4{display:inline;fill:#34B3E7;}
	.st5{display:inline;fill:#D81F26;}
	.st6{fill:#D81F26;}
	.st7{fill:#FFFFFF;}
</style>
<g class="st0">
	<path class="st1" d="M8,1C4.1,1,1,4.1,1,8c0,1.6,0.5,3,1.4,4.2l9.8-9.8C11,1.5,9.6,1,8,1z"/>
	<path class="st1" d="M8,15c3.9,0,7-3.1,7-7c0-1.6-0.5-3-1.4-4.2l-9.8,9.8C5,14.5,6.4,15,8,15z"/>
	<path class="st2" d="M1,8c0-3.9,3.1-7,7-7c1.6,0,3,0.5,4.2,1.4l0.7-0.7C11.5,0.6,9.8,0,8,0C3.6,0,0,3.6,0,8c0,1.8,0.6,3.5,1.7,4.9
		l0.7-0.7C1.5,11,1,9.6,1,8z"/>
	<path class="st2" d="M14.3,3.1l-0.7,0.7C14.5,5,15,6.4,15,8c0,3.9-3.1,7-7,7c-1.6,0-3-0.5-4.2-1.4l-0.7,0.7C4.5,15.4,6.2,16,8,16
		c4.4,0,8-3.6,8-8C16,6.2,15.4,4.5,14.3,3.1z"/>
	<path class="st2" d="M12.2,2.4l-9.8,9.8c0.4,0.5,0.9,1,1.4,1.4l9.8-9.8C13.2,3.3,12.7,2.8,12.2,2.4z"/>
	<path class="st2" d="M13.6,3.8l0.7-0.7c-0.4-0.5-0.9-1-1.4-1.4l-0.7,0.7C12.7,2.8,13.2,3.3,13.6,3.8z"/>
	<path class="st2" d="M2.4,12.2l-0.7,0.7c0.4,0.5,0.9,1,1.4,1.4l0.7-0.7C3.3,13.2,2.8,12.7,2.4,12.2z"/>
</g>
<g class="st0">
	<circle class="st1" cx="8" cy="8" r="7"/>
	<path class="st2" d="M8,1c3.9,0,7,3.1,7,7s-3.1,7-7,7c-3.9,0-7-3.1-7-7S4.1,1,8,1 M8,0C3.6,0,0,3.6,0,8s3.6,8,8,8c4.4,0,8-3.6,8-8
		S12.4,0,8,0L8,0z"/>
</g>
<g class="st0">
	<path class="st3" d="M8,1C4.1,1,1,4.1,1,8c0,1.6,0.5,3,1.4,4.2l9.8-9.8C11,1.5,9.6,1,8,1z"/>
	<path class="st3" d="M8,15c3.9,0,7-3.1,7-7c0-1.6-0.5-3-1.4-4.2l-9.8,9.8C5,14.5,6.4,15,8,15z"/>
	<path class="st2" d="M1,8c0-3.9,3.1-7,7-7c1.6,0,3,0.5,4.2,1.4l0.7-0.7C11.5,0.6,9.8,0,8,0C3.6,0,0,3.6,0,8c0,1.8,0.6,3.5,1.7,4.9
		l0.7-0.7C1.5,11,1,9.6,1,8z"/>
	<path class="st2" d="M14.3,3.1l-0.7,0.7C14.5,5,15,6.4,15,8c0,3.9-3.1,7-7,7c-1.6,0-3-0.5-4.2-1.4l-0.7,0.7C4.5,15.4,6.2,16,8,16
		c4.4,0,8-3.6,8-8C16,6.2,15.4,4.5,14.3,3.1z"/>
	<path class="st2" d="M12.2,2.4l-9.8,9.8c0.4,0.5,0.9,1,1.4,1.4l9.8-9.8C13.2,3.3,12.7,2.8,12.2,2.4z"/>
	<path class="st2" d="M13.6,3.8l0.7-0.7c-0.4-0.5-0.9-1-1.4-1.4l-0.7,0.7C12.7,2.8,13.2,3.3,13.6,3.8z"/>
	<path class="st2" d="M2.4,12.2l-0.7,0.7c0.4,0.5,0.9,1,1.4,1.4l0.7-0.7C3.3,13.2,2.8,12.7,2.4,12.2z"/>
</g>
<g class="st0">
	<circle class="st3" cx="8" cy="8" r="7"/>
	<path class="st2" d="M8,1c3.9,0,7,3.1,7,7s-3.1,7-7,7c-3.9,0-7-3.1-7-7S4.1,1,8,1 M8,0C3.6,0,0,3.6,0,8s3.6,8,8,8c4.4,0,8-3.6,8-8
		S12.4,0,8,0L8,0z"/>
</g>
<g class="st0">
	<circle class="st4" cx="8" cy="8" r="7"/>
	<path class="st2" d="M8,1c3.9,0,7,3.1,7,7s-3.1,7-7,7c-3.9,0-7-3.1-7-7S4.1,1,8,1 M8,0C3.6,0,0,3.6,0,8s3.6,8,8,8c4.4,0,8-3.6,8-8
		S12.4,0,8,0L8,0z"/>
</g>
<g class="st0">
	<path class="st4" d="M8,1C4.1,1,1,4.1,1,8c0,1.6,0.5,3,1.4,4.2l9.8-9.8C11,1.5,9.6,1,8,1z"/>
	<path class="st4" d="M8,15c3.9,0,7-3.1,7-7c0-1.6-0.5-3-1.4-4.2l-9.8,9.8C5,14.5,6.4,15,8,15z"/>
	<path class="st2" d="M1,8c0-3.9,3.1-7,7-7c1.6,0,3,0.5,4.2,1.4l0.7-0.7C11.5,0.6,9.8,0,8,0C3.6,0,0,3.6,0,8c0,1.8,0.6,3.5,1.7,4.9
		l0.7-0.7C1.5,11,1,9.6,1,8z"/>
	<path class="st2" d="M14.3,3.1l-0.7,0.7C14.5,5,15,6.4,15,8c0,3.9-3.1,7-7,7c-1.6,0-3-0.5-4.2-1.4l-0.7,0.7C4.5,15.4,6.2,16,8,16
		c4.4,0,8-3.6,8-8C16,6.2,15.4,4.5,14.3,3.1z"/>
	<path class="st2" d="M12.2,2.4l-9.8,9.8c0.4,0.5,0.9,1,1.4,1.4l9.8-9.8C13.2,3.3,12.7,2.8,12.2,2.4z"/>
	<path class="st2" d="M13.6,3.8l0.7-0.7c-0.4-0.5-0.9-1-1.4-1.4l-0.7,0.7C12.7,2.8,13.2,3.3,13.6,3.8z"/>
	<path class="st2" d="M2.4,12.2l-0.7,0.7c0.4,0.5,0.9,1,1.4,1.4l0.7-0.7C3.3,13.2,2.8,12.7,2.4,12.2z"/>
</g>
<g class="st0">
	<circle class="st5" cx="8" cy="8" r="7"/>
	<path class="st2" d="M8,1c3.9,0,7,3.1,7,7s-3.1,7-7,7c-3.9,0-7-3.1-7-7S4.1,1,8,1 M8,0C3.6,0,0,3.6,0,8s3.6,8,8,8c4.4,0,8-3.6,8-8
		S12.4,0,8,0L8,0z"/>
</g>
<g>
	<path class="st6" d="M8,1C4.1,1,1,4.1,1,8c0,1.6,0.5,3,1.4,4.2l9.8-9.8C11,1.5,9.6,1,8,1z"/>
	<path class="st6" d="M8,15c3.9,0,7-3.1,7-7c0-1.6-0.5-3-1.4-4.2l-9.8,9.8C5,14.5,6.4,15,8,15z"/>
	<path class="st7" d="M1,8c0-3.9,3.1-7,7-7c1.6,0,3,0.5,4.2,1.4l0.7-0.7C11.5,0.6,9.8,0,8,0C3.6,0,0,3.6,0,8c0,1.8,0.6,3.5,1.7,4.9
		l0.7-0.7C1.5,11,1,9.6,1,8z"/>
	<path class="st7" d="M14.3,3.1l-0.7,0.7C14.5,5,15,6.4,15,8c0,3.9-3.1,7-7,7c-1.6,0-3-0.5-4.2-1.4l-0.7,0.7C4.5,15.4,6.2,16,8,16
		c4.4,0,8-3.6,8-8C16,6.2,15.4,4.5,14.3,3.1z"/>
	<path class="st7" d="M12.2,2.4l-9.8,9.8c0.4,0.5,0.9,1,1.4,1.4l9.8-9.8C13.2,3.3,12.7,2.8,12.2,2.4z"/>
	<path class="st7" d="M13.6,3.8l0.7-0.7c-0.4-0.5-0.9-1-1.4-1.4l-0.7,0.7C12.7,2.8,13.2,3.3,13.6,3.8z"/>
	<path class="st7" d="M2.4,12.2l-0.7,0.7c0.4,0.5,0.9,1,1.4,1.4l0.7-0.7C3.3,13.2,2.8,12.7,2.4,12.2z"/>
</g>
<g class="st0">
	<circle class="st5" cx="8" cy="8" r="7"/>
	<path class="st2" d="M8,1c3.9,0,7,3.1,7,7s-3.1,7-7,7c-3.9,0-7-3.1-7-7S4.1,1,8,1 M8,0C3.6,0,0,3.6,0,8s3.6,8,8,8c4.4,0,8-3.6,8-8
		S12.4,0,8,0L8,0z"/>
</g>
</svg>
