<?xml version="1.0" encoding="utf-8"?>
<!-- Generator: Adobe Illustrator 20.0.0, SVG Export Plug-In . SVG Version: 6.00 Build 0)  -->
<svg version="1.1" xmlns="http://www.w3.org/2000/svg" xmlns:xlink="http://www.w3.org/1999/xlink" x="0px" y="0px"
	 viewBox="0 0 55 55" style="enable-background:new 0 0 55 55;" xml:space="preserve">
<style type="text/css">
	.circle{fill:#33B2E7;}
	.st3{fill:#FFFFFF;}
	.unknown-normal{display : inline;}
	.unknown-locked{display : none;}
</style>
   <g>
		<g>
			<circle class="circle" cx="27.5" cy="27.5" r="22"/>
		</g>
		<!--normal-->
		<g class="unknown-normal">
			<path class="st3" d="M34.9,21.7c0,2-1,3.8-3.2,5.5c-1.3,1-2,1.7-2.2,1.9c-0.8,0.9-1.2,2-1.1,3.2l0,0.2l-3.1,0.1l0-0.4     c-0.1-2.8,1.1-5,3.3-6.7c1.5-1.1,2.2-2.2,2.1-3.5c0-2.1-1.3-3.1-3.6-3c-2.4,0.1-3.6,1.3-3.5,3.7l-3.7,0.1c0-2,0.6-3.6,1.9-4.7     c1.3-1.1,3.2-1.6,5.5-1.7c2.1,0,3.9,0.4,5.3,1.4C34.1,18.7,34.9,20.1,34.9,21.7z M28.9,38.6l-3.6,0.1l-0.1-3.4l3.6-0.1L28.9,38.6     z"/>
		</g>
		<!--locked-->
	<g class="unknown-locked">
		<rect x="5.4" y="26" transform="matrix(0.7118 -0.7024 0.7024 0.7118 -11.4264 27.1518)" class="st3" width="43.9" height="3"/>
		<g>
			<path class="st3" d="M28.6,25.5c-0.9,0.7-1.6,1.4-2.2,2.3l2.8-2.8C29,25.2,28.8,25.3,28.6,25.5z"/>
			<path class="st3" d="M26.5,33.2c-0.1,0.6-0.2,1.3-0.2,2l0,0.4l3.1-0.1l0-0.2c0-1.2,0.4-2.3,1.1-3.2c0.2-0.2,0.9-0.9,2.2-1.9     c2.1-1.7,3.2-3.5,3.2-5.5c0-0.3,0-0.6-0.1-0.9L26.5,33.2z"/>
			<path class="st3" d="M33.7,18.8c-1.4-1-3.2-1.5-5.3-1.4C26,17.4,24.1,18,22.8,19c-1.3,1.1-2,2.6-1.9,4.7l3.7-0.1     c-0.1-2.4,1.1-3.6,3.5-3.7c2.4-0.1,3.6,0.9,3.6,3c0,0.9-0.3,1.8-1,2.6l4.7-4.7C35.1,20,34.5,19.3,33.7,18.8z"/>
			<rect x="26.2" y="38.3" transform="matrix(0.9998 -2.235680e-02 2.235680e-02 0.9998 -0.8872 0.6359)" class="st3" width="3.7" height="3.4"/>
		</g>
	</g>
	</g>
</svg>
